<svg xmlns="http://www.w3.org/2000/svg" width="222" height="73" viewBox="0 0 222 73"><g transform="translate(-36 -849)"><g transform="translate(-188 788)" opacity="0.25"><g transform="translate(224 61)"><g transform="translate(0 0)"><path d="M149.024,100.06h3.334l-2.167,8.13h5.194l-.693,2.659H146.15Z" transform="translate(-95.548 -65.216)" fill="#fff"/><path d="M182.354,106.594l.6-2.244h5.152l-1.226,4.6a14.282,14.282,0,0,1-2.985,1.385,9.866,9.866,0,0,1-2.794.364,5.572,5.572,0,0,1-2.957-.654,3.089,3.089,0,0,1-1.357-1.949,6,6,0,0,1,.128-2.974,7.963,7.963,0,0,1,1.548-3.075,6.925,6.925,0,0,1,2.663-1.984,8,8,0,0,1,3.088-.519,7.513,7.513,0,0,1,2.59.322,2.4,2.4,0,0,1,1.2,1,3.435,3.435,0,0,1,.419,1.731l-3.369.557a1.243,1.243,0,0,0-.426-.931,1.693,1.693,0,0,0-1.122-.325,2.853,2.853,0,0,0-1.953.762,4.816,4.816,0,0,0-1.291,2.424,3.344,3.344,0,0,0,0,2.5,1.768,1.768,0,0,0,1.638.751,3.944,3.944,0,0,0,1.111-.163,7.462,7.462,0,0,0,1.309-.554l.27-1.014Z" transform="translate(-115.493 -64.871)" fill="#fff"/><path d="M233.16,106.594l.6-2.244h5.152l-1.212,4.6a14.344,14.344,0,0,1-2.981,1.385,9.907,9.907,0,0,1-2.8.364,5.572,5.572,0,0,1-2.957-.654,3.088,3.088,0,0,1-1.357-1.949,6,6,0,0,1,.128-2.974,7.963,7.963,0,0,1,1.548-3.075,6.924,6.924,0,0,1,2.663-1.984,8,8,0,0,1,3.088-.519,7.513,7.513,0,0,1,2.59.322,2.4,2.4,0,0,1,1.2,1,3.435,3.435,0,0,1,.419,1.731l-3.383.557a1.253,1.253,0,0,0-.422-.931,1.71,1.71,0,0,0-1.125-.325,2.853,2.853,0,0,0-1.953.762,4.817,4.817,0,0,0-1.291,2.424,3.344,3.344,0,0,0,0,2.5,1.769,1.769,0,0,0,1.638.751,3.943,3.943,0,0,0,1.111-.163,7.469,7.469,0,0,0,1.309-.554l.27-1.014Z" transform="translate(-148.718 -64.871)" fill="#fff"/><path d="M261.61,110.836l2.874-10.789h5.54a7.351,7.351,0,0,1,2.292.263,1.731,1.731,0,0,1,1.056.983,2.655,2.655,0,0,1,.035,1.731,3.876,3.876,0,0,1-.8,1.548,4.411,4.411,0,0,1-1.333,1.039,5.24,5.24,0,0,1-1.284.429,2.476,2.476,0,0,1,.762.395,2.446,2.446,0,0,1,.381.568,2.971,2.971,0,0,1,.287.672l.782,3.116h-3.75l-.9-3.3a1.777,1.777,0,0,0-.381-.834,1.125,1.125,0,0,0-.751-.249h-.294l-1.167,4.38Zm5.058-6.419h1.406a5.738,5.738,0,0,0,.921-.145,1.24,1.24,0,0,0,.634-.346A1.337,1.337,0,0,0,270,103.3a.8.8,0,0,0-.118-.8,1.656,1.656,0,0,0-1.167-.28h-1.465Z" transform="translate(-171.032 -65.203)" fill="#fff"/><path d="M297,105.11A7.5,7.5,0,0,1,299.57,101a7.021,7.021,0,0,1,4.5-1.471q2.69,0,3.764,1.444a4.6,4.6,0,0,1,.377,4.051,8.389,8.389,0,0,1-1.461,3.116,6.706,6.706,0,0,1-2.344,1.887,7.2,7.2,0,0,1-3.178.672,5.886,5.886,0,0,1-2.863-.582,3.116,3.116,0,0,1-1.451-1.839A5.586,5.586,0,0,1,297,105.11Zm3.331,0a3.253,3.253,0,0,0-.021,2.347,1.545,1.545,0,0,0,1.461.713,2.687,2.687,0,0,0,1.852-.692,5.153,5.153,0,0,0,1.257-2.51,2.967,2.967,0,0,0-.021-2.226,1.589,1.589,0,0,0-1.482-.692,2.631,2.631,0,0,0-1.807.713,4.727,4.727,0,0,0-1.24,2.361Z" transform="translate(-193.989 -64.865)" fill="#fff"/><path d="M342.619,100.034h3.327l-1.714,6.426a6.732,6.732,0,0,1-.779,1.807,5.76,5.76,0,0,1-1.329,1.485,5.4,5.4,0,0,1-1.575.893,7.6,7.6,0,0,1-2.424.346,14.092,14.092,0,0,1-1.69-.111,3.6,3.6,0,0,1-1.44-.436,2.634,2.634,0,0,1-.9-.931,2.575,2.575,0,0,1-.381-1.243,6.466,6.466,0,0,1,.176-1.825l1.714-6.426h3.327L337.18,106.6a1.6,1.6,0,0,0,.125,1.385,1.409,1.409,0,0,0,1.226.5,2.316,2.316,0,0,0,1.478-.488,2.517,2.517,0,0,0,.859-1.385Z" transform="translate(-218.169 -65.19)" fill="#fff"/><path d="M369.947,100.06h5.54a3.008,3.008,0,0,1,2.482.859,2.7,2.7,0,0,1,.246,2.451,4.525,4.525,0,0,1-1.662,2.555,5.252,5.252,0,0,1-3.244.917h-1.825l-1.066,4.006H367.07Zm2.122,4.6h.817a2.513,2.513,0,0,0,1.444-.346,1.5,1.5,0,0,0,.62-.855,1,1,0,0,0-.111-.862c-.163-.235-.554-.346-1.181-.346h-.949Z" transform="translate(-239.978 -65.216)" fill="#fff"/><path d="M415.954,100.06h3.331l-2.167,8.13h5.193l-.693,2.659H413.08Z" transform="translate(-270.058 -65.216)" fill="#fff"/><path d="M444.692,100.06h10.134l-.692,2.663h-3.4l-2.164,8.126h-3.334l2.164-8.126H444Z" transform="translate(-290.272 -65.216)" fill="#fff"/><path d="M474.337,100.048h4.951a5.194,5.194,0,0,1,2.261.395,2.627,2.627,0,0,1,1.184,1.143,3.635,3.635,0,0,1,.395,1.731,8.212,8.212,0,0,1-.291,2.077,9.041,9.041,0,0,1-1.108,2.683,6.559,6.559,0,0,1-1.52,1.6,4.928,4.928,0,0,1-1.731.859,8.578,8.578,0,0,1-2.077.294H471.46Zm2.68,2.424-1.568,5.886h.817a3.874,3.874,0,0,0,1.548-.232,2.306,2.306,0,0,0,.907-.81,6.209,6.209,0,0,0,.751-1.873,3.326,3.326,0,0,0,.066-2.347c-.26-.422-.824-.634-1.686-.634Z" transform="translate(-308.225 -65.204)" fill="#fff"/><path d="M159.059,18.393c-.883-4.788-2.933-6.876-2.933-6.876s-13.24,4.079-25.756.346c-15.549-4.619-25.68-8.452-42.1-8.31A131.094,131.094,0,0,0,51.021,9.516C74.243.742,87.514-2.814,109.534,2.459c8.618,2.077,16.422,5.567,25.14,7.129,7.24,1.3,15.892,1.731,23.36-1.07a31.967,31.967,0,0,1,3.033,11.9,23.126,23.126,0,0,1-1.88,10.138c-.059.145.692-7.638-.128-12.167M112.5,11.333s-16.5,9.975-60.4.727a72.352,72.352,0,0,0-45.443,6.5C.087,21.838-.474,21.824.235,29.642,1.42,22.5,1.53,22.87,8.064,20.055A66.844,66.844,0,0,1,23.34,15.685c7.991-1.426,17.713-.848,39.124,1.814C101.637,22.375,112.5,11.333,112.5,11.333Z" transform="translate(0 0.009)" fill="#fff" fill-rule="evenodd"/></g></g></g><text transform="translate(82 898)" fill="#fff" font-size="12" font-family="BPGSSPCrystalCaps-BoldItalic, BPG SSP Crystal Caps" font-weight="700" font-style="italic" opacity="0.25"><tspan x="0" y="9">ავტომობილის სათადარიგო </tspan></text><text transform="translate(78 910)" fill="#fff" font-size="12" font-family="BPGSSPCrystalCaps-BoldItalic, BPG SSP Crystal Caps" font-weight="700" font-style="italic" opacity="0.25"><tspan x="0" y="9">ნაწილების მაღაზია</tspan></text></g></svg>