<svg xmlns="http://www.w3.org/2000/svg" width="20" height="20" viewBox="0 0 20 20"><g transform="translate(0 0)"><path d="M-577-3a10,10,0,0,1,10-10A10,10,0,0,1-557-3,10,10,0,0,1-567,7,10,10,0,0,1-577-3Zm7.633-5.708a4.231,4.231,0,0,0-1.394.266,2.823,2.823,0,0,0-1.017.662,2.815,2.815,0,0,0-.662,1.017,4.21,4.21,0,0,0-.267,1.394c-.028.613-.034.808-.034,2.368s.006,1.755.034,2.367A4.21,4.21,0,0,0-572.44.761a2.807,2.807,0,0,0,.662,1.017,2.807,2.807,0,0,0,1.017.662,4.213,4.213,0,0,0,1.394.266c.612.028.807.035,2.367.035s1.755-.007,2.368-.035a4.207,4.207,0,0,0,1.393-.266A2.937,2.937,0,0,0-561.56.761a4.21,4.21,0,0,0,.267-1.394c.028-.612.034-.808.034-2.367s-.006-1.755-.034-2.368a4.21,4.21,0,0,0-.267-1.394,2.815,2.815,0,0,0-.662-1.017,2.812,2.812,0,0,0-1.017-.662,4.231,4.231,0,0,0-1.394-.266c-.612-.028-.807-.035-2.367-.035S-568.755-8.735-569.367-8.708Zm.047,10.382a3.185,3.185,0,0,1-1.067-.2,1.791,1.791,0,0,1-.661-.43,1.786,1.786,0,0,1-.429-.66,3.185,3.185,0,0,1-.2-1.067c-.028-.606-.034-.787-.034-2.32s.006-1.715.034-2.32a3.185,3.185,0,0,1,.2-1.067,1.791,1.791,0,0,1,.43-.661,1.767,1.767,0,0,1,.66-.429,3.2,3.2,0,0,1,1.067-.2c.606-.027.787-.033,2.32-.033s1.714.006,2.32.033a3.2,3.2,0,0,1,1.066.2,1.767,1.767,0,0,1,.66.429,1.78,1.78,0,0,1,.43.661,3.184,3.184,0,0,1,.2,1.067c.028.6.034.787.034,2.32s-.006,1.715-.034,2.32a3.184,3.184,0,0,1-.2,1.067,1.906,1.906,0,0,1-1.09,1.09,3.184,3.184,0,0,1-1.066.2c-.6.028-.787.033-2.32.033S-568.715,1.7-569.32,1.674ZM-569.948-3A2.949,2.949,0,0,0-567-.051,2.949,2.949,0,0,0-564.052-3,2.949,2.949,0,0,0-567-5.949,2.949,2.949,0,0,0-569.948-3Zm5.324-3.065a.689.689,0,0,0,.689.689.689.689,0,0,0,.689-.689.689.689,0,0,0-.689-.689A.689.689,0,0,0-564.624-6.065ZM-568.914-3A1.914,1.914,0,0,1-567-4.914,1.914,1.914,0,0,1-565.086-3,1.914,1.914,0,0,1-567-1.086,1.914,1.914,0,0,1-568.914-3Z" transform="translate(577 13)" fill="#fff"/></g></svg>