<svg xmlns="http://www.w3.org/2000/svg" width="266.359" height="129.3" viewBox="0 0 266.359 129.3"><g transform="matrix(0.995, -0.105, 0.105, 0.995, -677.095, -1344.875)" opacity="0.58"><g transform="translate(530 1435)" fill="none" stroke="#20489d" stroke-width="4"><rect width="257" height="103" stroke="none"/><rect x="2" y="2" width="253" height="99" fill="none"/></g><g transform="translate(507 1386)"><text transform="translate(91 119)" fill="#20489d" font-size="12" font-family="BPGSSPCrystalCaps-BoldItalic, BPG SSP Crystal Caps" font-weight="700" font-style="italic"><tspan x="0" y="9">ავტომობილის სათადარიგო </tspan></text><text transform="translate(87 131)" fill="#20489d" font-size="12" font-family="BPGSSPCrystalCaps-BoldItalic, BPG SSP Crystal Caps" font-weight="700" font-style="italic"><tspan x="0" y="9">ნაწილების მაღაზია</tspan></text><g transform="translate(36 61.009)"><g transform="translate(0 -0.009)"><path d="M149.5,100.06h3.889l-2.528,9.482h6.057l-.808,3.1H146.15Z" transform="translate(-87.13 -59.42)" fill="#20489d"/><path d="M183.3,107.769l.7-2.617h6.009l-1.43,5.363a16.656,16.656,0,0,1-3.481,1.615,11.509,11.509,0,0,1-3.259.424,6.5,6.5,0,0,1-3.449-.763,3.6,3.6,0,0,1-1.583-2.274,7,7,0,0,1,.149-3.469,9.287,9.287,0,0,1,1.805-3.586,8.076,8.076,0,0,1,3.105-2.314,9.332,9.332,0,0,1,3.6-.606,8.763,8.763,0,0,1,3.021.376,2.794,2.794,0,0,1,1.405,1.171,4.006,4.006,0,0,1,.489,2.019l-3.929.65a1.45,1.45,0,0,0-.5-1.086,1.974,1.974,0,0,0-1.308-.38,3.327,3.327,0,0,0-2.278.888,5.617,5.617,0,0,0-1.506,2.827,3.9,3.9,0,0,0,0,2.92,2.063,2.063,0,0,0,1.91.876,4.6,4.6,0,0,0,1.3-.19,8.706,8.706,0,0,0,1.526-.646l.315-1.183Z" transform="translate(-105.318 -59.105)" fill="#20489d"/><path d="M234.106,107.769l.7-2.617h6.009l-1.413,5.363a16.731,16.731,0,0,1-3.477,1.615,11.556,11.556,0,0,1-3.263.424,6.5,6.5,0,0,1-3.449-.763,3.6,3.6,0,0,1-1.583-2.274,7,7,0,0,1,.149-3.469,9.288,9.288,0,0,1,1.805-3.586,8.076,8.076,0,0,1,3.105-2.314,9.331,9.331,0,0,1,3.6-.606,8.763,8.763,0,0,1,3.021.376,2.8,2.8,0,0,1,1.405,1.171,4.007,4.007,0,0,1,.489,2.019l-3.945.65a1.462,1.462,0,0,0-.493-1.086,2,2,0,0,0-1.312-.38,3.328,3.328,0,0,0-2.278.888,5.618,5.618,0,0,0-1.506,2.827,3.9,3.9,0,0,0,0,2.92,2.063,2.063,0,0,0,1.91.876,4.6,4.6,0,0,0,1.3-.19,8.71,8.71,0,0,0,1.527-.646l.315-1.183Z" transform="translate(-135.616 -59.105)" fill="#20489d"/><path d="M261.61,112.632l3.352-12.583h6.461a8.573,8.573,0,0,1,2.673.307,2.019,2.019,0,0,1,1.232,1.147,3.1,3.1,0,0,1,.04,2.019,4.52,4.52,0,0,1-.929,1.805,5.145,5.145,0,0,1-1.555,1.211,6.114,6.114,0,0,1-1.5.5,2.888,2.888,0,0,1,.888.46,2.856,2.856,0,0,1,.444.662,3.463,3.463,0,0,1,.335.783l.913,3.634h-4.373l-1.054-3.844a2.072,2.072,0,0,0-.444-.973,1.313,1.313,0,0,0-.876-.291h-.343l-1.361,5.108Zm5.9-7.487h1.64a6.694,6.694,0,0,0,1.074-.17,1.445,1.445,0,0,0,.739-.4,1.56,1.56,0,0,0,.436-.731.937.937,0,0,0-.137-.933,1.931,1.931,0,0,0-1.361-.327h-1.708Z" transform="translate(-155.964 -59.408)" fill="#20489d"/><path d="M297.05,106.039a8.743,8.743,0,0,1,2.992-4.8,8.19,8.19,0,0,1,5.25-1.716q3.138,0,4.39,1.684t.44,4.725a9.784,9.784,0,0,1-1.7,3.634,7.821,7.821,0,0,1-2.734,2.2,8.4,8.4,0,0,1-3.707.783,6.865,6.865,0,0,1-3.34-.678,3.634,3.634,0,0,1-1.692-2.144A6.516,6.516,0,0,1,297.05,106.039Zm3.885,0a3.794,3.794,0,0,0-.024,2.738,1.8,1.8,0,0,0,1.7.832,3.134,3.134,0,0,0,2.16-.808,6.01,6.01,0,0,0,1.466-2.928,3.46,3.46,0,0,0-.024-2.6,1.854,1.854,0,0,0-1.728-.808,3.069,3.069,0,0,0-2.108.832,5.514,5.514,0,0,0-1.446,2.754Z" transform="translate(-176.899 -59.099)" fill="#20489d"/><path d="M344.1,100.036h3.881l-2,7.5a7.853,7.853,0,0,1-.909,2.108,6.718,6.718,0,0,1-1.551,1.732,6.3,6.3,0,0,1-1.837,1.042,8.861,8.861,0,0,1-2.827.4,16.442,16.442,0,0,1-1.971-.129,4.192,4.192,0,0,1-1.68-.509,3.073,3.073,0,0,1-1.046-1.086,3,3,0,0,1-.444-1.45,7.544,7.544,0,0,1,.206-2.128l2-7.5H339.8l-2.047,7.673a1.866,1.866,0,0,0,.145,1.615,1.644,1.644,0,0,0,1.43.577,2.7,2.7,0,0,0,1.724-.569,2.936,2.936,0,0,0,1-1.615Z" transform="translate(-198.948 -59.396)" fill="#20489d"/><path d="M370.426,100.06h6.461a3.509,3.509,0,0,1,2.9,1,3.147,3.147,0,0,1,.287,2.859,5.278,5.278,0,0,1-1.938,2.98,6.125,6.125,0,0,1-3.784,1.07h-2.128l-1.244,4.672H367.07Zm2.475,5.363h.953a2.932,2.932,0,0,0,1.684-.4,1.753,1.753,0,0,0,.723-1,1.167,1.167,0,0,0-.129-1.006c-.19-.275-.646-.4-1.377-.4h-1.107Z" transform="translate(-218.836 -59.42)" fill="#20489d"/><path d="M416.432,100.06h3.885l-2.528,9.482h6.057l-.808,3.1H413.08Z" transform="translate(-246.266 -59.42)" fill="#20489d"/><path d="M444.808,100.06h11.82l-.808,3.105h-3.966l-2.524,9.478h-3.889l2.524-9.478H444Z" transform="translate(-264.699 -59.42)" fill="#20489d"/><path d="M474.816,100.049h5.775a6.057,6.057,0,0,1,2.637.46,3.065,3.065,0,0,1,1.381,1.333,4.239,4.239,0,0,1,.461,2.019,9.573,9.573,0,0,1-.339,2.423,10.545,10.545,0,0,1-1.292,3.13,7.649,7.649,0,0,1-1.773,1.862,5.748,5.748,0,0,1-2.019,1,10,10,0,0,1-2.423.343H471.46Zm3.126,2.827-1.829,6.865h.953a4.519,4.519,0,0,0,1.805-.271,2.689,2.689,0,0,0,1.058-.945,7.241,7.241,0,0,0,.876-2.185,3.879,3.879,0,0,0,.077-2.738c-.3-.493-.961-.739-1.967-.739Z" transform="translate(-281.07 -59.409)" fill="#20489d"/><path d="M185.52,21.454c-1.03-5.585-3.42-8.02-3.42-8.02s-15.442,4.757-30.041.4c-18.136-5.387-29.952-9.857-49.106-9.692A152.9,152.9,0,0,0,59.508,11.1C86.593.867,102.072-3.28,127.756,2.87c10.051,2.423,19.154,6.494,29.322,8.315,8.444,1.514,18.536,2.019,27.246-1.248a37.286,37.286,0,0,1,3.538,13.884,26.973,26.973,0,0,1-2.193,11.824c-.069.17.808-8.909-.149-14.191m-54.3-8.234s-19.251,11.634-70.444.848a84.387,84.387,0,0,0-53,7.584C.1,25.472-.553,25.456.275,34.575c1.381-8.331,1.51-7.9,9.131-11.182a77.963,77.963,0,0,1,17.817-5.1c9.32-1.664,20.66-.989,45.633,2.116C118.544,26.1,131.221,13.22,131.221,13.22Z" transform="translate(0 0.009)" fill="#20489d" fill-rule="evenodd"/></g></g></g></g></svg>