<svg xmlns="http://www.w3.org/2000/svg" width="194.242" height="66.781" viewBox="0 0 194.242 66.781"><g transform="translate(-36 -60)"><g transform="translate(36 60)"><path d="M6.054,4.966a4.1,4.1,0,0,1-.49,1.324,3.262,3.262,0,0,1-.743.864,2.572,2.572,0,0,1-.885.465,3.274,3.274,0,0,1-.915.136,2.429,2.429,0,0,1-.96-.177A1.471,1.471,0,0,1,1.4,7.043a1.977,1.977,0,0,1-.3-.9,4,4,0,0,1,.091-1.259,3.05,3.05,0,0,1,.136-.43q.1-.248.212-.49A4.434,4.434,0,0,1,1.8,3.5a3.234,3.234,0,0,1,.263-.364.155.155,0,0,1,.2-.061l.677.344a.152.152,0,0,1,.071.106.2.2,0,0,1-.051.147,3.119,3.119,0,0,0-.349.561,2.814,2.814,0,0,0-.227.642,2.172,2.172,0,0,0,.015,1.4.883.883,0,0,0,.854.42,1.754,1.754,0,0,0,.526-.076,1.108,1.108,0,0,0,.445-.273,1.82,1.82,0,0,0,.359-.526,3.9,3.9,0,0,0,.268-.844,2.5,2.5,0,0,0,.066-.728A1.929,1.929,0,0,0,4.8,3.692a1.808,1.808,0,0,0-.248-.44q-.152-.2-.3-.379-.182-.212-.354-.45A2.356,2.356,0,0,1,3.6,1.883a2.394,2.394,0,0,1-.142-.708,3.552,3.552,0,0,1,.1-.96A.257.257,0,0,1,3.633.084.183.183,0,0,1,3.759.033H4.6A.121.121,0,0,1,4.7.084.155.155,0,0,1,4.72.215a2.345,2.345,0,0,0-.051.7,1.971,1.971,0,0,0,.131.551,2.253,2.253,0,0,0,.253.46l.3.425q.182.233.354.485a2.5,2.5,0,0,1,.283.561,2.653,2.653,0,0,1,.142.692A2.985,2.985,0,0,1,6.054,4.966ZM10.2,1.1a1.543,1.543,0,0,0-.768.172.734.734,0,0,0-.374.505l.01.01q0,.081-.01.182a.555.555,0,0,0,0,.152.252.252,0,0,1-.045.147.21.21,0,0,1-.126.086L8,2.55q-.162.03-.152-.142v-.6A2.2,2.2,0,0,1,8.162,1.1,2.113,2.113,0,0,1,8.718.533,2.7,2.7,0,0,1,9.486.164a3.184,3.184,0,0,1,.935-.131,2.835,2.835,0,0,1,.91.136A1.832,1.832,0,0,1,12,.549a1.272,1.272,0,0,1,.364.586,1.585,1.585,0,0,1,.02.758,2.176,2.176,0,0,1-.4.879,2.3,2.3,0,0,1-.824.657,1.359,1.359,0,0,1,.42.425,1.622,1.622,0,0,1,.2.505,2.217,2.217,0,0,1,.051.505,2.185,2.185,0,0,1-.045.425,3.6,3.6,0,0,1-.4,1.1,2.757,2.757,0,0,1-.652.768,2.548,2.548,0,0,1-.864.45,3.584,3.584,0,0,1-1.041.147,2.483,2.483,0,0,1-.965-.172,1.614,1.614,0,0,1-.662-.5,1.7,1.7,0,0,1-.329-.783,2.877,2.877,0,0,1,.045-1.046,2.529,2.529,0,0,1,.263-.642,2.474,2.474,0,0,1,.647-.723.155.155,0,0,1,.111-.051.137.137,0,0,1,.1.04l.5.455a.176.176,0,0,1,.035.126A.209.209,0,0,1,8.5,4.6a1.42,1.42,0,0,0-.293.4A1.4,1.4,0,0,0,8.1,5.31a1.262,1.262,0,0,0,.121,1.031.976.976,0,0,0,.839.354,1.754,1.754,0,0,0,.526-.076,1.254,1.254,0,0,0,.44-.243,1.426,1.426,0,0,0,.339-.44,2.845,2.845,0,0,0,.233-.667,1.223,1.223,0,0,0-.01-.566,1.247,1.247,0,0,0-.212-.435,1.045,1.045,0,0,0-.329-.283.74.74,0,0,0-.349-.1H9.339a.121.121,0,0,1-.106-.051.164.164,0,0,1-.025-.121l.152-.7a.257.257,0,0,1,.076-.131.183.183,0,0,1,.126-.051h.425a2.466,2.466,0,0,0,.273-.02,1.024,1.024,0,0,0,.349-.111,1.055,1.055,0,0,0,.551-.788.6.6,0,0,0-.152-.566A1.073,1.073,0,0,0,10.2,1.1Zm5.408,5.59a2.014,2.014,0,0,0,.824-.177A2.524,2.524,0,0,0,17.179,6a3.23,3.23,0,0,0,.607-.854,4.831,4.831,0,0,0,.4-1.178,3.44,3.44,0,0,0,0-1.865,1.256,1.256,0,0,0-.92-.834,2.775,2.775,0,0,0-.071.288q-.03.157-.071.308-.111.536-.207,1.152t-.167,1.223a.19.19,0,0,1-.192.192h-.94a.115.115,0,0,1-.111-.056.185.185,0,0,1-.01-.136q.182-.566.339-1.142T16.092,2q.051-.2.086-.389a2.837,2.837,0,0,0,.045-.349,2.334,2.334,0,0,0-1.248.849,4.349,4.349,0,0,0-.8,1.85,4.02,4.02,0,0,0-.1,1.178A2.074,2.074,0,0,0,14.318,6a1.314,1.314,0,0,0,.531.521A1.593,1.593,0,0,0,15.607,6.695Zm-.233,1.061a2.845,2.845,0,0,1-1.142-.227,2.1,2.1,0,0,1-.869-.692,2.676,2.676,0,0,1-.46-1.178,4.726,4.726,0,0,1,.086-1.693,6.268,6.268,0,0,1,.531-1.537A4.475,4.475,0,0,1,14.3,1.322a3.463,3.463,0,0,1,.975-.7A3.559,3.559,0,0,1,16.355.3V.185a.241.241,0,0,1,.061-.162.182.182,0,0,1,.142-.071h.96a.112.112,0,0,1,.111.066.186.186,0,0,1-.01.157L17.568.3a2.51,2.51,0,0,1,.92.334,1.915,1.915,0,0,1,.672.708,2.8,2.8,0,0,1,.323,1.107,5.052,5.052,0,0,1-.116,1.521,5.513,5.513,0,0,1-.622,1.693,4.524,4.524,0,0,1-.97,1.178,3.883,3.883,0,0,1-1.173.692A3.558,3.558,0,0,1,15.374,7.756ZM26.514.033a1.662,1.662,0,0,1,.814.2,1.344,1.344,0,0,1,.561.612,2.8,2.8,0,0,1,.238,1.072A6,6,0,0,1,27.96,3.49a9.03,9.03,0,0,1-.374,1.284,8.138,8.138,0,0,1-.505,1.092,8.516,8.516,0,0,1-.617.95q-.334.445-.7.869a.158.158,0,0,1-.2.061l-.728-.313a.12.12,0,0,1-.076-.111.194.194,0,0,1,.066-.152q.374-.445.677-.839a6.453,6.453,0,0,0,.975-1.794,9.923,9.923,0,0,0,.339-1.208,3.493,3.493,0,0,0,.051-1.678q-.182-.546-.637-.546a1.485,1.485,0,0,0-.389.051.829.829,0,0,0-.364.227,1.762,1.762,0,0,0-.329.5,3.966,3.966,0,0,0-.263.869l-.04.152q-.04.2-.081.389t-.076.4q-.035.212-.071.485t-.086.647a.251.251,0,0,1-.066.142.168.168,0,0,1-.126.061h-.96a.124.124,0,0,1-.116-.061.159.159,0,0,1-.005-.142q.121-.384.2-.672t.142-.521q.061-.232.1-.414t.071-.354l.03-.111a3.4,3.4,0,0,0,.1-.9,1.094,1.094,0,0,0-.131-.5.444.444,0,0,0-.273-.207,1.391,1.391,0,0,0-.329-.04,1,1,0,0,0-.435.1,1.225,1.225,0,0,0-.414.354,2.7,2.7,0,0,0-.374.682,6.318,6.318,0,0,0-.3,1.087,8.391,8.391,0,0,0-.182,1.152,5.827,5.827,0,0,0,0,.97,4.269,4.269,0,0,0,.167.869,6.073,6.073,0,0,0,.329.839.143.143,0,0,1,0,.147.27.27,0,0,1-.121.116l-.859.323a.116.116,0,0,1-.172-.061q-.192-.435-.339-.854A5.046,5.046,0,0,1,20.2,4.86a8.69,8.69,0,0,1,.192-1.339,7.088,7.088,0,0,1,.505-1.592A4.257,4.257,0,0,1,21.6.847,2.543,2.543,0,0,1,22.435.23a2.306,2.306,0,0,1,.935-.2,3.548,3.548,0,0,1,.43.025,1.469,1.469,0,0,1,.389.1,1.059,1.059,0,0,1,.576.571A1.756,1.756,0,0,1,25.19.351a2.027,2.027,0,0,1,.445-.207,2.087,2.087,0,0,1,.445-.091Q26.3.033,26.514.033Zm5.024,2.386a1.616,1.616,0,0,1,1.163.4l.1-.536a1.321,1.321,0,0,0,.02-.556.775.775,0,0,0-.182-.364.732.732,0,0,0-.334-.2,1.506,1.506,0,0,0-.435-.061,1.819,1.819,0,0,0-.885.192,1.057,1.057,0,0,0-.47.758.206.206,0,0,1-.066.131.183.183,0,0,1-.126.051h-.879a.121.121,0,0,1-.106-.051.183.183,0,0,1-.025-.131,2.442,2.442,0,0,1,.409-.945A2.416,2.416,0,0,1,30.4.483a2.8,2.8,0,0,1,.829-.344A3.779,3.779,0,0,1,32.1.033a2.43,2.43,0,0,1,.844.147,1.732,1.732,0,0,1,.672.435,1.649,1.649,0,0,1,.389.713A2.091,2.091,0,0,1,34,2.318L33.358,5.33a2.981,2.981,0,0,1-.42,1.061,3.018,3.018,0,0,1-.7.758,2.915,2.915,0,0,1-.864.455,2.985,2.985,0,0,1-.93.152,2.229,2.229,0,0,1-.915-.182,1.721,1.721,0,0,1-.677-.531,1.943,1.943,0,0,1-.359-.854,3.018,3.018,0,0,1,.04-1.142,3.294,3.294,0,0,1,.44-1.056,3.655,3.655,0,0,1,.723-.829,3.349,3.349,0,0,1,.9-.546A2.491,2.491,0,0,1,31.538,2.419ZM31.316,3.49a1.278,1.278,0,0,0-.531.116,1.609,1.609,0,0,0-.465.318,1.941,1.941,0,0,0-.359.49,2.657,2.657,0,0,0-.232.632,2.079,2.079,0,0,0-.035.652,1.316,1.316,0,0,0,.167.521.949.949,0,0,0,.839.475,1.306,1.306,0,0,0,.94-.369,2.037,2.037,0,0,0,.536-1.066l.273-1.3a1.432,1.432,0,0,0-.521-.354A1.684,1.684,0,0,0,31.316,3.49ZM40.8.033a1.662,1.662,0,0,1,.814.2,1.344,1.344,0,0,1,.561.612,2.8,2.8,0,0,1,.238,1.072,6,6,0,0,1-.167,1.577,9.03,9.03,0,0,1-.374,1.284,8.137,8.137,0,0,1-.505,1.092,8.516,8.516,0,0,1-.617.95q-.334.445-.7.869a.158.158,0,0,1-.2.061l-.728-.313a.12.12,0,0,1-.076-.111.194.194,0,0,1,.066-.152q.374-.445.677-.839a6.453,6.453,0,0,0,.975-1.794A9.924,9.924,0,0,0,41.1,3.328a3.493,3.493,0,0,0,.051-1.678q-.182-.546-.637-.546a1.485,1.485,0,0,0-.389.051.829.829,0,0,0-.364.227,1.762,1.762,0,0,0-.329.5,3.966,3.966,0,0,0-.263.869l-.04.152q-.04.2-.081.389t-.076.4q-.035.212-.071.485t-.086.647a.251.251,0,0,1-.066.142.168.168,0,0,1-.126.061h-.96a.124.124,0,0,1-.116-.061.159.159,0,0,1-.005-.142q.121-.384.2-.672t.142-.521q.061-.232.1-.414t.071-.354l.03-.111a3.4,3.4,0,0,0,.1-.9,1.094,1.094,0,0,0-.131-.5.444.444,0,0,0-.273-.207,1.391,1.391,0,0,0-.329-.04,1,1,0,0,0-.435.1,1.225,1.225,0,0,0-.414.354,2.7,2.7,0,0,0-.374.682,6.317,6.317,0,0,0-.3,1.087,8.391,8.391,0,0,0-.182,1.152,5.827,5.827,0,0,0,0,.97,4.27,4.27,0,0,0,.167.869,6.073,6.073,0,0,0,.329.839.143.143,0,0,1,0,.147.27.27,0,0,1-.121.116l-.859.323a.116.116,0,0,1-.172-.061q-.192-.435-.339-.854A5.046,5.046,0,0,1,34.48,4.86a8.689,8.689,0,0,1,.192-1.339,7.088,7.088,0,0,1,.505-1.592,4.257,4.257,0,0,1,.7-1.082A2.543,2.543,0,0,1,36.719.23a2.306,2.306,0,0,1,.935-.2,3.548,3.548,0,0,1,.43.025,1.469,1.469,0,0,1,.389.1,1.059,1.059,0,0,1,.576.571,1.756,1.756,0,0,1,.425-.379,2.027,2.027,0,0,1,.445-.207,2.087,2.087,0,0,1,.445-.091Q40.585.033,40.8.033ZM44.74,7.756a2.177,2.177,0,0,1-.915-.187,1.764,1.764,0,0,1-.677-.536,1.991,1.991,0,0,1-.364-.859,2.909,2.909,0,0,1,.045-1.157,3.272,3.272,0,0,1,.369-.97,3.443,3.443,0,0,1,.617-.783,3.192,3.192,0,0,1,.794-.551,3.1,3.1,0,0,1,.91-.283,1.09,1.09,0,0,0,.1-.192.38.38,0,0,0-.071-.3,1.512,1.512,0,0,0-.222-.258,2.53,2.53,0,0,1-.344-.43.815.815,0,0,1-.071-.622L45,.215a.257.257,0,0,1,.076-.131A.183.183,0,0,1,45.2.033h.92a.108.108,0,0,1,.1.051.17.17,0,0,1,.01.131l-.081.4a.269.269,0,0,0,.051.2q.071.111.172.253a3.1,3.1,0,0,1,.278.48,1,1,0,0,1,.056.632q-.02.071-.051.157t-.071.187a1.911,1.911,0,0,1,.576.389,1.86,1.86,0,0,1,.4.576,2.448,2.448,0,0,1,.192.718,2.489,2.489,0,0,1-.045.814,4.044,4.044,0,0,1-.435,1.157,3.274,3.274,0,0,1-.7.859,2.963,2.963,0,0,1-.879.531A2.666,2.666,0,0,1,44.74,7.756Zm.233-1.061a1.282,1.282,0,0,0,.96-.425,2.518,2.518,0,0,0,.576-1.243,1.965,1.965,0,0,0,.04-.617,1.13,1.13,0,0,0-.157-.485.916.916,0,0,0-.334-.318,1.008,1.008,0,0,0-.5-.116,1.308,1.308,0,0,0-.991.43,2.239,2.239,0,0,0-.546,1.1,1.722,1.722,0,0,0,.091,1.248A.929.929,0,0,0,44.972,6.695ZM52.14.033a2.272,2.272,0,0,1,.94.182,1.393,1.393,0,0,1,.642.591A2.434,2.434,0,0,1,54,1.883a6.233,6.233,0,0,1-.172,1.648q-.091.445-.222.955a10.439,10.439,0,0,1-.334,1.051,8.539,8.539,0,0,1-.505,1.1,7.241,7.241,0,0,1-.728,1.082.213.213,0,0,1-.1.071.13.13,0,0,1-.1,0L51.1,7.473a.129.129,0,0,1-.071-.106.183.183,0,0,1,.051-.147,7.359,7.359,0,0,0,.622-.935,7.177,7.177,0,0,0,.42-.9,8.275,8.275,0,0,0,.288-.9q.116-.455.217-.95a4.007,4.007,0,0,0,.1-1.84.768.768,0,0,0-.814-.586,1.291,1.291,0,0,0-1.056.586,4.751,4.751,0,0,0-.7,1.83q-.111.5-.187.955a7.715,7.715,0,0,0-.1.9,5.688,5.688,0,0,0,.03.895,4.81,4.81,0,0,0,.2.925.154.154,0,0,1-.015.147.251.251,0,0,1-.116.106l-.849.334a.172.172,0,0,1-.116,0,.122.122,0,0,1-.076-.071,5.108,5.108,0,0,1-.243-1.092,6.661,6.661,0,0,1-.03-1.1,9.371,9.371,0,0,1,.116-1.046q.086-.505.177-.95a7.582,7.582,0,0,1,.531-1.648A3.921,3.921,0,0,1,50.2.806a2.443,2.443,0,0,1,.9-.591A3,3,0,0,1,52.14.033ZM54.98,6.341a.162.162,0,0,1-.015-.121.214.214,0,0,1,.076-.121,3.125,3.125,0,0,1,.991-.546,2.7,2.7,0,0,1-.981-1.269,2.87,2.87,0,0,1-.172-.8A3.042,3.042,0,0,1,54.95,2.6a4.107,4.107,0,0,1,.389-1.117,3.052,3.052,0,0,1,.607-.8,2.372,2.372,0,0,1,.773-.485A2.45,2.45,0,0,1,57.6.033,1.928,1.928,0,0,1,58.4.2a1.162,1.162,0,0,1,.571.6,2.227,2.227,0,0,1,.819-.6,2.189,2.189,0,0,1,.8-.167,1.66,1.66,0,0,1,.7.167,1.172,1.172,0,0,1,.561.6,2.077,2.077,0,0,1,.42-.374,2.2,2.2,0,0,1,.92-.359,3.059,3.059,0,0,1,.45-.035,1.55,1.55,0,0,1,.824.207A1.474,1.474,0,0,1,65,.816a2.148,2.148,0,0,1,.233.869,3.678,3.678,0,0,1-.1,1.077,3.694,3.694,0,0,1-.5,1.213A10.043,10.043,0,0,1,63.583,5.35a.161.161,0,0,1-.192.071l-.778-.283a.123.123,0,0,1-.086-.116.249.249,0,0,1,.056-.167,7.7,7.7,0,0,0,1.011-1.279,3.361,3.361,0,0,0,.384-.864,2.522,2.522,0,0,0,.056-.637,1.523,1.523,0,0,0-.106-.51.8.8,0,0,0-.253-.339A.606.606,0,0,0,63.3,1.1a1.015,1.015,0,0,0-.374.076,1.173,1.173,0,0,0-.359.227,1.708,1.708,0,0,0-.3.374,1.6,1.6,0,0,0-.2.505q-.061.3-.131.733t-.1.8a.251.251,0,0,1-.066.142.178.178,0,0,1-.136.061h-.9a.124.124,0,0,1-.116-.061.159.159,0,0,1-.005-.142q.061-.192.121-.4t.116-.409q.056-.2.1-.389t.076-.339a1.145,1.145,0,0,0-.076-.864.624.624,0,0,0-.561-.318,1.084,1.084,0,0,0-.713.3,1.6,1.6,0,0,0-.48.879q-.03.152-.066.339t-.066.389q-.03.2-.061.409t-.051.4a.251.251,0,0,1-.066.142.178.178,0,0,1-.136.061h-.89a.124.124,0,0,1-.116-.061.159.159,0,0,1-.005-.142q.061-.192.121-.4t.111-.409q.051-.2.1-.389t.076-.339a1.3,1.3,0,0,0,.025-.49.925.925,0,0,0-.136-.369.7.7,0,0,0-.268-.238.772.772,0,0,0-.359-.086.752.752,0,0,0-.414.131,1.5,1.5,0,0,0-.374.359,2.675,2.675,0,0,0-.3.521,3.1,3.1,0,0,0-.2.627,1.718,1.718,0,0,0,.126,1.1,2.571,2.571,0,0,0,.753.95A1.92,1.92,0,0,0,57.366,5a4.948,4.948,0,0,0,.48.177q.258.081.531.147l.536.126q.526.111,1.036.253a3.464,3.464,0,0,1,.89.374,1.547,1.547,0,0,1,.571.591,1.315,1.315,0,0,1,.071.915.194.194,0,0,1-.2.172h-.91q-.162,0-.121-.172a.5.5,0,0,0-.2-.51,2.274,2.274,0,0,0-.682-.374,5.934,5.934,0,0,0-.97-.258q-.546-.1-1.061-.162h-.061a.07.07,0,0,1-.03-.005.07.07,0,0,0-.03-.005,1.35,1.35,0,0,0-.465.081,1.868,1.868,0,0,0-.409.207,3.117,3.117,0,0,0-.349.273q-.162.147-.293.278-.152.152-.243,0ZM69.082.033a2.272,2.272,0,0,1,.94.182,1.393,1.393,0,0,1,.642.591,2.434,2.434,0,0,1,.278,1.077,6.233,6.233,0,0,1-.172,1.648q-.091.445-.222.955a10.44,10.44,0,0,1-.334,1.051,8.539,8.539,0,0,1-.505,1.1,7.241,7.241,0,0,1-.728,1.082.214.214,0,0,1-.1.071.13.13,0,0,1-.1,0l-.738-.313a.129.129,0,0,1-.071-.106.183.183,0,0,1,.051-.147,7.357,7.357,0,0,0,.622-.935,7.178,7.178,0,0,0,.42-.9,8.278,8.278,0,0,0,.288-.9q.116-.455.217-.95a4.007,4.007,0,0,0,.1-1.84.768.768,0,0,0-.814-.586,1.291,1.291,0,0,0-1.056.586,4.751,4.751,0,0,0-.7,1.83q-.111.5-.187.955a7.714,7.714,0,0,0-.1.9,5.687,5.687,0,0,0,.03.895,4.81,4.81,0,0,0,.2.925.154.154,0,0,1-.015.147.251.251,0,0,1-.116.106l-.849.334a.172.172,0,0,1-.116,0,.122.122,0,0,1-.076-.071,5.107,5.107,0,0,1-.243-1.092,6.661,6.661,0,0,1-.03-1.1,9.373,9.373,0,0,1,.116-1.046q.086-.505.177-.95a7.583,7.583,0,0,1,.531-1.648A3.921,3.921,0,0,1,67.141.806a2.443,2.443,0,0,1,.9-.591A3,3,0,0,1,69.082.033ZM75,5.29a1.887,1.887,0,0,0,0-.824,2.913,2.913,0,0,0-.323-.8A1.546,1.546,0,0,1,74.52,2.55a3.667,3.667,0,0,1,.1-.364,2.779,2.779,0,0,1,.152-.364.431.431,0,0,1,.1-.106.112.112,0,0,1,.111-.025l.869.192a.136.136,0,0,1,.086.081.167.167,0,0,1-.015.142q-.061.142-.111.263a1.134,1.134,0,0,0-.071.233,1,1,0,0,0-.02.283.6.6,0,0,0,.091.273,3.267,3.267,0,0,1,.409,1.016A2.726,2.726,0,0,1,76.2,5.3a3.048,3.048,0,0,1-.414,1.011,3.188,3.188,0,0,1-.692.773,3.146,3.146,0,0,1-.879.5,2.8,2.8,0,0,1-.975.177,2.4,2.4,0,0,1-.915-.167,1.577,1.577,0,0,1-.667-.5,1.857,1.857,0,0,1-.344-.839,3.15,3.15,0,0,1,.056-1.173L72.4.225a.257.257,0,0,1,.076-.131A.183.183,0,0,1,72.6.043h.869a.121.121,0,0,1,.106.051.155.155,0,0,1,.015.131L72.549,5.118a1.649,1.649,0,0,0,.076,1.168.893.893,0,0,0,.844.409A1.365,1.365,0,0,0,74.46,6.3,1.937,1.937,0,0,0,75,5.29Zm7.784,0a1.887,1.887,0,0,0,0-.824,2.913,2.913,0,0,0-.323-.8A1.546,1.546,0,0,1,82.3,2.55a3.667,3.667,0,0,1,.1-.364,2.779,2.779,0,0,1,.152-.364.431.431,0,0,1,.1-.106.112.112,0,0,1,.111-.025l.869.192a.136.136,0,0,1,.086.081.167.167,0,0,1-.015.142q-.061.142-.111.263a1.135,1.135,0,0,0-.071.233,1,1,0,0,0-.02.283.6.6,0,0,0,.091.273,3.267,3.267,0,0,1,.409,1.016A2.726,2.726,0,0,1,83.982,5.3a3.048,3.048,0,0,1-.414,1.011,3.187,3.187,0,0,1-.692.773,3.146,3.146,0,0,1-.879.5,2.8,2.8,0,0,1-.975.177,2.4,2.4,0,0,1-.915-.167,1.577,1.577,0,0,1-.667-.5,1.857,1.857,0,0,1-.344-.839,3.15,3.15,0,0,1,.056-1.173L80.181.225a.257.257,0,0,1,.076-.131.183.183,0,0,1,.126-.051h.869a.121.121,0,0,1,.106.051.155.155,0,0,1,.015.131L80.333,5.118a1.649,1.649,0,0,0,.076,1.168.893.893,0,0,0,.844.409,1.365,1.365,0,0,0,.991-.394A1.937,1.937,0,0,0,82.779,5.29Zm7.076-.323a4.1,4.1,0,0,1-.49,1.324,3.262,3.262,0,0,1-.743.864,2.572,2.572,0,0,1-.885.465,3.274,3.274,0,0,1-.915.136,2.429,2.429,0,0,1-.96-.177,1.471,1.471,0,0,1-.657-.536,1.977,1.977,0,0,1-.3-.9,4,4,0,0,1,.091-1.259,3.049,3.049,0,0,1,.136-.43q.1-.248.212-.49A4.434,4.434,0,0,1,85.6,3.5a3.234,3.234,0,0,1,.263-.364.155.155,0,0,1,.2-.061l.677.344a.152.152,0,0,1,.071.106.2.2,0,0,1-.051.147,3.118,3.118,0,0,0-.349.561,2.814,2.814,0,0,0-.227.642,2.172,2.172,0,0,0,.015,1.4.883.883,0,0,0,.854.42,1.754,1.754,0,0,0,.526-.076,1.108,1.108,0,0,0,.445-.273,1.82,1.82,0,0,0,.359-.526,3.9,3.9,0,0,0,.268-.844,2.5,2.5,0,0,0,.066-.728,1.929,1.929,0,0,0-.121-.556,1.808,1.808,0,0,0-.248-.44q-.152-.2-.3-.379-.182-.212-.354-.45a2.356,2.356,0,0,1-.288-.541,2.394,2.394,0,0,1-.142-.708,3.553,3.553,0,0,1,.1-.96.257.257,0,0,1,.076-.131A.183.183,0,0,1,87.56.033H88.4a.121.121,0,0,1,.106.051.155.155,0,0,1,.015.131,2.345,2.345,0,0,0-.051.7,1.971,1.971,0,0,0,.131.551,2.252,2.252,0,0,0,.253.46l.3.425q.182.233.354.485a2.5,2.5,0,0,1,.283.561,2.653,2.653,0,0,1,.142.692A2.985,2.985,0,0,1,89.855,4.966Zm5.893,2.386a.139.139,0,0,1-.056-.121.246.246,0,0,1,.066-.142,9.081,9.081,0,0,0,.622-.662,4.142,4.142,0,0,0,.475-.7,5.991,5.991,0,0,0,.379-.879,10.667,10.667,0,0,0,.323-1.183,4.563,4.563,0,0,0,.116-1.946.7.7,0,0,0-.7-.612,1.433,1.433,0,0,0-.445.066,1.175,1.175,0,0,0-.455.339,4.862,4.862,0,0,1,.015,1.031,11.04,11.04,0,0,1-.2,1.355,9.188,9.188,0,0,1-.581,1.85,4.454,4.454,0,0,1-.758,1.188,2.449,2.449,0,0,1-.9.637,2.814,2.814,0,0,1-1.021.187,2.619,2.619,0,0,1-.981-.167,1.218,1.218,0,0,1-.637-.6A2.725,2.725,0,0,1,90.77,5.81a8.81,8.81,0,0,1,.238-1.936,9.35,9.35,0,0,1,.581-1.9A4.223,4.223,0,0,1,92.337.8a2.239,2.239,0,0,1,.9-.6A3.2,3.2,0,0,1,94.273.033a2.129,2.129,0,0,1,.8.131,1.552,1.552,0,0,1,.617.505,2.491,2.491,0,0,1,.839-.51,2.452,2.452,0,0,1,.748-.126,1.47,1.47,0,0,1,1.461.92,4.806,4.806,0,0,1,.005,2.81,11.047,11.047,0,0,1-.3,1.168,6.212,6.212,0,0,1-.425,1.006,5.815,5.815,0,0,1-.607.915,7.471,7.471,0,0,1-.839.874.159.159,0,0,1-.2.03ZM92.878,6.7q1.213,0,1.8-2.77a9.926,9.926,0,0,0,.2-1.3,3.252,3.252,0,0,0-.03-.879.808.808,0,0,0-.273-.5A.851.851,0,0,0,94.04,1.1a1.176,1.176,0,0,0-.566.142,1.458,1.458,0,0,0-.49.47,3.893,3.893,0,0,0-.425.864A10.185,10.185,0,0,0,92.19,3.9a5.248,5.248,0,0,0-.147,2.133A.8.8,0,0,0,92.878,6.7ZM104.29,4.966a4.1,4.1,0,0,1-.49,1.324,3.262,3.262,0,0,1-.743.864,2.572,2.572,0,0,1-.885.465,3.274,3.274,0,0,1-.915.136,2.429,2.429,0,0,1-.96-.177,1.471,1.471,0,0,1-.657-.536,1.977,1.977,0,0,1-.3-.9,4,4,0,0,1,.091-1.259,3.05,3.05,0,0,1,.136-.43q.1-.248.212-.49a4.433,4.433,0,0,1,.258-.465,3.235,3.235,0,0,1,.263-.364.155.155,0,0,1,.2-.061l.677.344a.152.152,0,0,1,.071.106.2.2,0,0,1-.051.147,3.119,3.119,0,0,0-.349.561,2.814,2.814,0,0,0-.227.642,2.172,2.172,0,0,0,.015,1.4.883.883,0,0,0,.854.42,1.754,1.754,0,0,0,.526-.076,1.108,1.108,0,0,0,.445-.273,1.821,1.821,0,0,0,.359-.526,3.9,3.9,0,0,0,.268-.844,2.5,2.5,0,0,0,.066-.728,1.929,1.929,0,0,0-.121-.556,1.808,1.808,0,0,0-.248-.44q-.152-.2-.3-.379-.182-.212-.354-.45a2.356,2.356,0,0,1-.288-.541,2.394,2.394,0,0,1-.142-.708,3.552,3.552,0,0,1,.1-.96.257.257,0,0,1,.076-.131A.183.183,0,0,1,102,.033h.839a.121.121,0,0,1,.106.051.155.155,0,0,1,.015.131,2.345,2.345,0,0,0-.051.7,1.97,1.97,0,0,0,.131.551,2.252,2.252,0,0,0,.253.46l.3.425q.182.233.354.485a2.5,2.5,0,0,1,.283.561,2.653,2.653,0,0,1,.142.692A2.985,2.985,0,0,1,104.29,4.966Zm.879,1.061a.161.161,0,0,1-.005-.152.235.235,0,0,1,.126-.121q.263-.111.49-.192a3.213,3.213,0,0,1,.51-.131,2.322,2.322,0,0,1-.662-1.168,3.8,3.8,0,0,1,.066-1.572,3.968,3.968,0,0,1,.4-1.1,3.338,3.338,0,0,1,.637-.829,2.762,2.762,0,0,1,.783-.521,2.082,2.082,0,0,1,.834-.182q.182,0,.369.005a2.248,2.248,0,0,1,.369.04,1.658,1.658,0,0,1,.354.111,1.315,1.315,0,0,1,.334.217,2.324,2.324,0,0,1,.384-.222,2,2,0,0,1,.354-.121,2.06,2.06,0,0,1,.364-.051q.192-.01.425-.01a2,2,0,0,1,.869.187,1.709,1.709,0,0,1,.652.536,2.058,2.058,0,0,1,.354.844,2.9,2.9,0,0,1-.025,1.112,3.333,3.333,0,0,1-.44,1.092,3.741,3.741,0,0,1-.713.834,3.052,3.052,0,0,1-.879.536,2.578,2.578,0,0,1-.95.187,2.036,2.036,0,0,1-.874-.187,1.826,1.826,0,0,1-.672-.536,1.942,1.942,0,0,1-.369-.834,2.689,2.689,0,0,1,.035-1.092,3.875,3.875,0,0,1,.248-.763,4.627,4.627,0,0,1,.359-.672.722.722,0,0,0-.278-.126,1.982,1.982,0,0,0-.42-.035.867.867,0,0,0-.43.116,1.294,1.294,0,0,0-.374.323,2.473,2.473,0,0,0-.3.48,2.414,2.414,0,0,0-.192.576,3.621,3.621,0,0,0-.081.586,2.944,2.944,0,0,0,.035.662,2.147,2.147,0,0,0,.227.662,1.918,1.918,0,0,0,.5.586h-.01a2.4,2.4,0,0,0,.394.192q.253.1.5.192.354.131.723.288a2.4,2.4,0,0,1,.647.4,1.465,1.465,0,0,1,.409.581,1.481,1.481,0,0,1,.03.834.194.194,0,0,1-.2.172h-.819q-.162,0-.121-.172a.639.639,0,0,0-.142-.556,1.652,1.652,0,0,0-.531-.409,3.057,3.057,0,0,0-.7-.253,2.951,2.951,0,0,0-.647-.086,1.858,1.858,0,0,0-.672.126,1.688,1.688,0,0,0-.591.389.171.171,0,0,1-.136.081.126.126,0,0,1-.116-.081ZM110.4,4.309a1.308,1.308,0,0,0,.991-.445,2.382,2.382,0,0,0,.566-1.152,1.78,1.78,0,0,0-.081-1.152.814.814,0,0,0-.8-.445,1.35,1.35,0,0,0-1.011.445,2.27,2.27,0,0,0-.566,1.152,1.7,1.7,0,0,0,.081,1.152A.844.844,0,0,0,110.4,4.309Zm8.067.657a4.1,4.1,0,0,1-.49,1.324,3.263,3.263,0,0,1-.743.864,2.573,2.573,0,0,1-.885.465,3.274,3.274,0,0,1-.915.136,2.429,2.429,0,0,1-.96-.177,1.471,1.471,0,0,1-.657-.536,1.977,1.977,0,0,1-.3-.9,4,4,0,0,1,.091-1.259,3.05,3.05,0,0,1,.136-.43q.1-.248.212-.49a4.433,4.433,0,0,1,.258-.465,3.236,3.236,0,0,1,.263-.364.155.155,0,0,1,.2-.061l.677.344a.152.152,0,0,1,.071.106.2.2,0,0,1-.051.147,3.12,3.12,0,0,0-.349.561,2.815,2.815,0,0,0-.227.642,2.172,2.172,0,0,0,.015,1.4.883.883,0,0,0,.854.42,1.754,1.754,0,0,0,.526-.076,1.108,1.108,0,0,0,.445-.273,1.821,1.821,0,0,0,.359-.526,3.9,3.9,0,0,0,.268-.844,2.5,2.5,0,0,0,.066-.728,1.929,1.929,0,0,0-.121-.556,1.808,1.808,0,0,0-.248-.44q-.152-.2-.3-.379-.182-.212-.354-.45a2.356,2.356,0,0,1-.288-.541,2.394,2.394,0,0,1-.142-.708,3.552,3.552,0,0,1,.1-.96.257.257,0,0,1,.076-.131.183.183,0,0,1,.126-.051h.839a.121.121,0,0,1,.106.051.155.155,0,0,1,.015.131,2.345,2.345,0,0,0-.051.7,1.97,1.97,0,0,0,.131.551,2.252,2.252,0,0,0,.253.46l.3.425q.182.233.354.485a2.5,2.5,0,0,1,.283.561,2.653,2.653,0,0,1,.142.692A2.985,2.985,0,0,1,118.463,4.966ZM126.529.528a.16.16,0,0,1,.03.126.193.193,0,0,1-.071.126,2.547,2.547,0,0,1-.576.379,4.216,4.216,0,0,1-.7.263,6.51,6.51,0,0,1-.778.167,8.016,8.016,0,0,1-.814.081,4.589,4.589,0,0,0-1.147.3,3.776,3.776,0,0,0-.915.521,2.091,2.091,0,0,1,.546-.071,2.531,2.531,0,0,1,.859.131,1.047,1.047,0,0,1,.576.617,1.9,1.9,0,0,1,.4-.389,1.851,1.851,0,0,1,.445-.227,2.1,2.1,0,0,1,.465-.106,4.395,4.395,0,0,1,.475-.025,1.833,1.833,0,0,1,.849.187,1.39,1.39,0,0,1,.571.536,2.078,2.078,0,0,1,.263.834,3.371,3.371,0,0,1-.076,1.092,4,4,0,0,1-.617,1.461A7.725,7.725,0,0,1,125.3,7.706a.28.28,0,0,1-.1.045.114.114,0,0,1-.091-.005l-.788-.323a.131.131,0,0,1-.071-.121.247.247,0,0,1,.071-.162,6.778,6.778,0,0,0,.561-.566,4.866,4.866,0,0,0,.414-.546,3.225,3.225,0,0,0,.293-.566,3.884,3.884,0,0,0,.187-.627,2.327,2.327,0,0,0,.061-.642.816.816,0,0,0-.131-.414.6.6,0,0,0-.288-.222,1.141,1.141,0,0,0-.4-.066,1.86,1.86,0,0,0-.384.04,1.023,1.023,0,0,0-.354.147,1.064,1.064,0,0,0-.288.288,1.279,1.279,0,0,0-.187.465q-.061.3-.106.6t-.076.692a.227.227,0,0,1-.066.136.174.174,0,0,1-.126.056h-.96a.127.127,0,0,1-.116-.056.147.147,0,0,1-.005-.136q.131-.394.222-.692t.152-.6a1.007,1.007,0,0,0,.015-.455.533.533,0,0,0-.172-.288.757.757,0,0,0-.3-.152,1.518,1.518,0,0,0-.379-.045,1.181,1.181,0,0,0-.778.268,1.616,1.616,0,0,0-.465.935,4.038,4.038,0,0,0-.1.677,2.832,2.832,0,0,0,.035.612,2.554,2.554,0,0,0,.172.581,4.886,4.886,0,0,0,.3.586.161.161,0,0,1,.005.152.235.235,0,0,1-.126.121l-.849.323a.166.166,0,0,1-.106.005.122.122,0,0,1-.066-.045,3.269,3.269,0,0,1-.313-.6,3.547,3.547,0,0,1-.2-.7,4.665,4.665,0,0,1-.071-.758,3.653,3.653,0,0,1,.076-.783,9.255,9.255,0,0,1,.435-1.44,4.664,4.664,0,0,1,.738-1.259,4.156,4.156,0,0,1,1.162-.965,4.866,4.866,0,0,1,1.7-.551q.465-.071.834-.131a6.126,6.126,0,0,0,.657-.142,4.061,4.061,0,0,0,.521-.182,2.152,2.152,0,0,0,.435-.253q.131-.111.212.01Zm4.832-.5a2.272,2.272,0,0,1,.94.182,1.393,1.393,0,0,1,.642.591,2.434,2.434,0,0,1,.278,1.077,6.233,6.233,0,0,1-.172,1.648q-.091.445-.222.955a10.442,10.442,0,0,1-.334,1.051,8.538,8.538,0,0,1-.505,1.1,7.242,7.242,0,0,1-.728,1.082.213.213,0,0,1-.1.071.13.13,0,0,1-.1,0l-.738-.313a.129.129,0,0,1-.071-.106.183.183,0,0,1,.051-.147,7.356,7.356,0,0,0,.622-.935,7.178,7.178,0,0,0,.42-.9,8.276,8.276,0,0,0,.288-.9q.116-.455.217-.95a4.007,4.007,0,0,0,.1-1.84.768.768,0,0,0-.814-.586,1.291,1.291,0,0,0-1.056.586,4.751,4.751,0,0,0-.7,1.83q-.111.5-.187.955a7.718,7.718,0,0,0-.1.9,5.69,5.69,0,0,0,.03.895,4.809,4.809,0,0,0,.2.925.154.154,0,0,1-.015.147.251.251,0,0,1-.116.106l-.849.334a.172.172,0,0,1-.116,0,.122.122,0,0,1-.076-.071,5.108,5.108,0,0,1-.243-1.092,6.662,6.662,0,0,1-.03-1.1,9.367,9.367,0,0,1,.116-1.046q.086-.505.177-.95a7.582,7.582,0,0,1,.531-1.648,3.921,3.921,0,0,1,.723-1.077,2.443,2.443,0,0,1,.9-.591A3,3,0,0,1,131.361.033Zm2.274,5.075a3.276,3.276,0,0,1,.349-.93,3.349,3.349,0,0,1,.612-.794,3.633,3.633,0,0,1,.824-.591,3.114,3.114,0,0,1,1-.323l.505-.051a1.065,1.065,0,0,0,.571-.278.924.924,0,0,0,.217-.389.442.442,0,0,0-.136-.5,1.043,1.043,0,0,0-.591-.142,1.255,1.255,0,0,0-.51.1.591.591,0,0,0-.308.409l.01.293a.193.193,0,0,1-.04.147.19.19,0,0,1-.131.076l-.9.111a.1.1,0,0,1-.1-.035.157.157,0,0,1-.045-.116l.01-.485A1.718,1.718,0,0,1,135.3.887,2.005,2.005,0,0,1,135.855.4a2.463,2.463,0,0,1,.677-.273,2.932,2.932,0,0,1,.682-.086,3.3,3.3,0,0,1,.7.076,1.694,1.694,0,0,1,.612.258,1.084,1.084,0,0,1,.389.485,1.257,1.257,0,0,1,.025.758,1.744,1.744,0,0,1-.227.541,2.18,2.18,0,0,1-.571.612,2.435,2.435,0,0,1,.824.986,2.089,2.089,0,0,1,.116,1.35,3.026,3.026,0,0,1-.445,1.041,3.7,3.7,0,0,1-1.764,1.41,2.991,2.991,0,0,1-1.077.207,2.327,2.327,0,0,1-.986-.207,2.147,2.147,0,0,1-.753-.566,2.062,2.062,0,0,1-.425-.844A2.262,2.262,0,0,1,133.636,5.108Zm2.4,1.587a1.811,1.811,0,0,0,.612-.106,1.834,1.834,0,0,0,.551-.313,2.014,2.014,0,0,0,.435-.5,2.092,2.092,0,0,0,.263-.667,1.658,1.658,0,0,0,.02-.723,1.114,1.114,0,0,0-.248-.505,1.094,1.094,0,0,0-.425-.293,1.427,1.427,0,0,0-.521-.1,2.064,2.064,0,0,0-.627.1,1.7,1.7,0,0,0-.551.293,1.916,1.916,0,0,0-.435.5,2.3,2.3,0,0,0-.278.718,1.637,1.637,0,0,0-.02.672,1.155,1.155,0,0,0,.222.5,1.068,1.068,0,0,0,.42.313A1.454,1.454,0,0,0,136.032,6.695ZM146.464.033a1.662,1.662,0,0,1,.814.2,1.344,1.344,0,0,1,.561.612,2.8,2.8,0,0,1,.238,1.072,6,6,0,0,1-.167,1.577,9.031,9.031,0,0,1-.374,1.284,8.14,8.14,0,0,1-.505,1.092,8.519,8.519,0,0,1-.617.95q-.334.445-.7.869a.158.158,0,0,1-.2.061l-.728-.313a.12.12,0,0,1-.076-.111.194.194,0,0,1,.066-.152q.374-.445.677-.839a6.453,6.453,0,0,0,.975-1.794,9.926,9.926,0,0,0,.339-1.208,3.493,3.493,0,0,0,.051-1.678q-.182-.546-.637-.546a1.485,1.485,0,0,0-.389.051.829.829,0,0,0-.364.227,1.762,1.762,0,0,0-.329.5,3.965,3.965,0,0,0-.263.869l-.04.152q-.04.2-.081.389t-.076.4q-.035.212-.071.485t-.086.647a.251.251,0,0,1-.066.142.168.168,0,0,1-.126.061h-.96a.124.124,0,0,1-.116-.061.159.159,0,0,1-.005-.142q.121-.384.2-.672t.142-.521q.061-.232.1-.414t.071-.354l.03-.111a3.4,3.4,0,0,0,.1-.9,1.094,1.094,0,0,0-.131-.5.444.444,0,0,0-.273-.207,1.391,1.391,0,0,0-.329-.04,1,1,0,0,0-.435.1,1.225,1.225,0,0,0-.414.354,2.7,2.7,0,0,0-.374.682,6.317,6.317,0,0,0-.3,1.087,8.388,8.388,0,0,0-.182,1.152,5.826,5.826,0,0,0,0,.97,4.269,4.269,0,0,0,.167.869,6.074,6.074,0,0,0,.329.839.143.143,0,0,1,0,.147.27.27,0,0,1-.121.116l-.859.323a.116.116,0,0,1-.172-.061q-.192-.435-.339-.854a5.047,5.047,0,0,1-.268-1.971,8.69,8.69,0,0,1,.192-1.339,7.087,7.087,0,0,1,.505-1.592,4.257,4.257,0,0,1,.7-1.082,2.543,2.543,0,0,1,.839-.617,2.306,2.306,0,0,1,.935-.2,3.548,3.548,0,0,1,.43.025,1.469,1.469,0,0,1,.389.1,1.059,1.059,0,0,1,.576.571,1.756,1.756,0,0,1,.425-.379,2.027,2.027,0,0,1,.445-.207,2.087,2.087,0,0,1,.445-.091Q146.252.033,146.464.033Z" transform="translate(46.161 48.876)" fill="#fff"/><path d="M2.811,2.789a2.463,2.463,0,0,1,.718-.263A3.414,3.414,0,0,1,4.2,2.446a2.074,2.074,0,0,1,.879.182,1.684,1.684,0,0,1,.652.526,1.915,1.915,0,0,1,.344.829,2.831,2.831,0,0,1-.045,1.092A3.339,3.339,0,0,1,5.6,6.181a3.743,3.743,0,0,1-.718.859,3.059,3.059,0,0,1-.895.551,2.62,2.62,0,0,1-.97.192,2.472,2.472,0,0,1-.93-.167,1.627,1.627,0,0,1-.672-.485,1.72,1.72,0,0,1-.344-.788A2.876,2.876,0,0,1,1.1,5.266l.627-2.952a2.914,2.914,0,0,1,.91-1.7A2.429,2.429,0,0,1,4.247.06H6.612a.121.121,0,0,1,.106.051.155.155,0,0,1,.015.131l-.182.869a.27.27,0,0,1-.081.136.156.156,0,0,1-.131.045L4.408,1.132a.737.737,0,0,0-.121-.01H4.176a1.054,1.054,0,0,0-.864.339,2.5,2.5,0,0,0-.43,1.066Zm.435,3.932A1.235,1.235,0,0,0,3.8,6.6a1.526,1.526,0,0,0,.46-.349,2.231,2.231,0,0,0,.349-.521,2.649,2.649,0,0,0,.217-.652,1.714,1.714,0,0,0-.061-1.127.807.807,0,0,0-.8-.43q-.121,0-.273.01a2.7,2.7,0,0,0-.334.045,2.016,2.016,0,0,0-.379.116,2.1,2.1,0,0,0-.389.212l-.3,1.415a1.3,1.3,0,0,0,.126,1.011A.922.922,0,0,0,3.246,6.722Zm8.6-1.729a4.1,4.1,0,0,1-.49,1.324,3.262,3.262,0,0,1-.743.864,2.572,2.572,0,0,1-.885.465,3.274,3.274,0,0,1-.915.136,2.429,2.429,0,0,1-.96-.177A1.471,1.471,0,0,1,7.2,7.07a1.977,1.977,0,0,1-.3-.9,4,4,0,0,1,.091-1.259,3.05,3.05,0,0,1,.136-.43q.1-.248.212-.49a4.434,4.434,0,0,1,.258-.465,3.234,3.234,0,0,1,.263-.364.155.155,0,0,1,.2-.061l.677.344a.152.152,0,0,1,.071.106.2.2,0,0,1-.051.147,3.119,3.119,0,0,0-.349.561,2.814,2.814,0,0,0-.227.642,2.172,2.172,0,0,0,.015,1.4.883.883,0,0,0,.854.42,1.754,1.754,0,0,0,.526-.076,1.108,1.108,0,0,0,.445-.273,1.82,1.82,0,0,0,.359-.526A3.9,3.9,0,0,0,10.645,5a2.5,2.5,0,0,0,.066-.728,1.929,1.929,0,0,0-.121-.556,1.808,1.808,0,0,0-.248-.44q-.152-.2-.3-.379-.182-.212-.354-.45A2.356,2.356,0,0,1,9.4,1.91,2.394,2.394,0,0,1,9.255,1.2a3.552,3.552,0,0,1,.1-.96A.257.257,0,0,1,9.427.111.183.183,0,0,1,9.554.06h.839A.121.121,0,0,1,10.5.111a.155.155,0,0,1,.015.131,2.345,2.345,0,0,0-.051.7,1.971,1.971,0,0,0,.131.551,2.253,2.253,0,0,0,.253.46l.3.425q.182.233.354.485a2.5,2.5,0,0,1,.283.561,2.653,2.653,0,0,1,.142.692A2.985,2.985,0,0,1,11.848,4.993ZM13.415,1.96a2.836,2.836,0,0,1,.329-.864,2.344,2.344,0,0,1,.5-.591,1.8,1.8,0,0,1,.607-.339A2.111,2.111,0,0,1,15.5.06a1.18,1.18,0,0,1,.516.121,1.264,1.264,0,0,1,.445.364A1.26,1.26,0,0,1,16.908.2,1.729,1.729,0,0,1,17.641.07q.172,0,.43.015a1.7,1.7,0,0,1,.5.106.115.115,0,0,1,.066.091.166.166,0,0,1-.025.131l-.5.91a.2.2,0,0,1-.152.126.106.106,0,0,1-.131-.076.453.453,0,0,0-.238-.2.826.826,0,0,0-.3-.061.676.676,0,0,0-.349.081.462.462,0,0,0-.187.323.417.417,0,0,0-.01.045.052.052,0,0,0,.01.02.137.137,0,0,1,.01.066q0,.051.01.172a.241.241,0,0,1-.056.152.168.168,0,0,1-.136.071h-.9a.122.122,0,0,1-.116-.066.172.172,0,0,1,.005-.157q.061-.131.091-.187l.04-.076.01-.03a.11.11,0,0,0,.02-.04q.04-.2-.076-.278a.6.6,0,0,0-.329-.076.667.667,0,0,0-.45.152,1.217,1.217,0,0,0-.278.667l-.293.95a2.325,2.325,0,0,1,.718-.364,2.526,2.526,0,0,1,.667-.091,2.206,2.206,0,0,1,.885.177,1.8,1.8,0,0,1,.687.516,1.925,1.925,0,0,1,.384.829,2.633,2.633,0,0,1-.025,1.107,3.365,3.365,0,0,1-.45,1.127,3.621,3.621,0,0,1-.738.849,3.277,3.277,0,0,1-.915.541,2.7,2.7,0,0,1-.981.192,2.433,2.433,0,0,1-.879-.152,1.547,1.547,0,0,1-.652-.465,1.722,1.722,0,0,1-.349-.778,2.77,2.77,0,0,1,.04-1.092ZM14.78,6.722a1.345,1.345,0,0,0,.561-.121,1.6,1.6,0,0,0,.485-.344,2.283,2.283,0,0,0,.379-.526,2.379,2.379,0,0,0,.233-.657,1.472,1.472,0,0,0-.106-1.137.949.949,0,0,0-.864-.42q-.172,0-.323.005a1.477,1.477,0,0,0-.3.04,1.515,1.515,0,0,0-.3.111,2.3,2.3,0,0,0-.339.207l-.3,1.405a1.455,1.455,0,0,0,.076,1.072A.872.872,0,0,0,14.78,6.722ZM22.068.06a2.272,2.272,0,0,1,.94.182,1.393,1.393,0,0,1,.642.591,2.434,2.434,0,0,1,.278,1.077,6.233,6.233,0,0,1-.172,1.648q-.091.445-.222.955A10.44,10.44,0,0,1,23.2,5.564a8.539,8.539,0,0,1-.505,1.1,7.241,7.241,0,0,1-.728,1.082.213.213,0,0,1-.1.071.13.13,0,0,1-.1,0L21.027,7.5a.129.129,0,0,1-.071-.106.183.183,0,0,1,.051-.147,7.358,7.358,0,0,0,.622-.935,7.177,7.177,0,0,0,.42-.9,8.275,8.275,0,0,0,.288-.9q.116-.455.217-.95a4.007,4.007,0,0,0,.1-1.84.768.768,0,0,0-.814-.586,1.291,1.291,0,0,0-1.056.586,4.751,4.751,0,0,0-.7,1.83q-.111.5-.187.955a7.715,7.715,0,0,0-.1.9,5.687,5.687,0,0,0,.03.895,4.809,4.809,0,0,0,.2.925.154.154,0,0,1-.015.147.251.251,0,0,1-.116.106l-.849.334a.172.172,0,0,1-.116,0,.122.122,0,0,1-.076-.071,5.108,5.108,0,0,1-.243-1.092,6.66,6.66,0,0,1-.03-1.1A9.371,9.371,0,0,1,18.7,4.508q.086-.505.177-.95A7.582,7.582,0,0,1,19.4,1.91,3.921,3.921,0,0,1,20.127.833a2.443,2.443,0,0,1,.9-.591A3,3,0,0,1,22.068.06Zm2.841,6.308a.162.162,0,0,1-.015-.121.214.214,0,0,1,.076-.121,3.125,3.125,0,0,1,.991-.546,2.7,2.7,0,0,1-.981-1.269,2.87,2.87,0,0,1-.172-.8,3.042,3.042,0,0,1,.071-.879,4.107,4.107,0,0,1,.389-1.117,3.052,3.052,0,0,1,.607-.8,2.372,2.372,0,0,1,.773-.485A2.45,2.45,0,0,1,27.527.06a1.928,1.928,0,0,1,.8.167,1.162,1.162,0,0,1,.571.6,2.227,2.227,0,0,1,.819-.6,2.189,2.189,0,0,1,.8-.167,1.66,1.66,0,0,1,.7.167,1.172,1.172,0,0,1,.561.6A2.077,2.077,0,0,1,32.2.454,2.2,2.2,0,0,1,33.122.1a3.059,3.059,0,0,1,.45-.035A1.55,1.55,0,0,1,34.4.267a1.474,1.474,0,0,1,.536.576,2.148,2.148,0,0,1,.233.869,3.678,3.678,0,0,1-.1,1.077A3.693,3.693,0,0,1,34.573,4a10.043,10.043,0,0,1-1.061,1.375.161.161,0,0,1-.192.071l-.778-.283a.123.123,0,0,1-.086-.116.249.249,0,0,1,.056-.167A7.7,7.7,0,0,0,33.521,3.6a3.361,3.361,0,0,0,.384-.864,2.521,2.521,0,0,0,.056-.637,1.522,1.522,0,0,0-.106-.51.8.8,0,0,0-.253-.339.606.606,0,0,0-.374-.121,1.015,1.015,0,0,0-.374.076,1.173,1.173,0,0,0-.359.227,1.708,1.708,0,0,0-.3.374,1.6,1.6,0,0,0-.2.505q-.061.3-.131.733t-.1.8a.251.251,0,0,1-.066.142.178.178,0,0,1-.136.061h-.9a.124.124,0,0,1-.116-.061.159.159,0,0,1-.005-.142q.061-.192.121-.4t.116-.409q.056-.2.1-.389t.076-.339a1.145,1.145,0,0,0-.076-.864.624.624,0,0,0-.561-.318,1.084,1.084,0,0,0-.713.3,1.6,1.6,0,0,0-.48.879q-.03.152-.066.339t-.066.389q-.03.2-.061.409t-.051.4a.251.251,0,0,1-.066.142.178.178,0,0,1-.136.061h-.89a.124.124,0,0,1-.116-.061.159.159,0,0,1-.005-.142q.061-.192.121-.4t.111-.409q.051-.2.1-.389t.076-.339a1.3,1.3,0,0,0,.025-.49.925.925,0,0,0-.136-.369.7.7,0,0,0-.268-.238.772.772,0,0,0-.359-.086.752.752,0,0,0-.414.131,1.5,1.5,0,0,0-.374.359,2.675,2.675,0,0,0-.3.521,3.1,3.1,0,0,0-.2.627,1.718,1.718,0,0,0,.126,1.1,2.571,2.571,0,0,0,.753.95,1.921,1.921,0,0,0,.374.207,4.948,4.948,0,0,0,.48.177q.258.081.531.147l.536.126q.526.111,1.036.253a3.464,3.464,0,0,1,.89.374,1.547,1.547,0,0,1,.571.591,1.315,1.315,0,0,1,.071.915.194.194,0,0,1-.2.172H30.3q-.162,0-.121-.172a.5.5,0,0,0-.2-.51,2.274,2.274,0,0,0-.682-.374,5.934,5.934,0,0,0-.97-.258q-.546-.1-1.061-.162H27.2a.07.07,0,0,1-.03-.005.07.07,0,0,0-.03-.005,1.35,1.35,0,0,0-.465.081,1.868,1.868,0,0,0-.409.207,3.117,3.117,0,0,0-.349.273q-.162.147-.293.278-.152.152-.243,0ZM37.4,7.783a2.551,2.551,0,0,1-.981-.172,1.827,1.827,0,0,1-.682-.475,1.538,1.538,0,0,1-.354-.728,2.241,2.241,0,0,1,.025-.93q.03-.131.1-.344a3.179,3.179,0,0,1,.187-.44,2.7,2.7,0,0,1,.288-.445,1.554,1.554,0,0,1,.425-.369.151.151,0,0,1,.182.01l.516.475a.176.176,0,0,1,.035.126.209.209,0,0,1-.066.136,1.426,1.426,0,0,0-.374.5,2.1,2.1,0,0,0-.111.344,1.147,1.147,0,0,0-.01.5.9.9,0,0,0,.546.657,1.291,1.291,0,0,0,.516.1,1.308,1.308,0,0,0,.975-.364,2.361,2.361,0,0,0,.531-1.183l.607-2.851A1.176,1.176,0,0,0,39.7,1.41a.909.909,0,0,0-.783-.278,1.553,1.553,0,0,0-.819.2.815.815,0,0,0-.4.536,1.062,1.062,0,0,0-.035.238.37.37,0,0,0,.076.238.223.223,0,0,1,0,.162.214.214,0,0,1-.121.121l-.758.3a.1.1,0,0,1-.081.005.2.2,0,0,1-.071-.045.971.971,0,0,1-.227-.51,1.461,1.461,0,0,1,.035-.5,2.117,2.117,0,0,1,.323-.763,2.161,2.161,0,0,1,.576-.571A2.735,2.735,0,0,1,38.2.186,3.409,3.409,0,0,1,39.142.06a2.654,2.654,0,0,1,.9.142,1.475,1.475,0,0,1,.637.425A1.493,1.493,0,0,1,41,1.334a2.515,2.515,0,0,1-.04.991l-.607,2.851a4.258,4.258,0,0,1-.435,1.218,2.807,2.807,0,0,1-.662.809,2.381,2.381,0,0,1-.854.445A3.608,3.608,0,0,1,37.4,7.783Zm5.812,0A2.177,2.177,0,0,1,42.3,7.6a1.764,1.764,0,0,1-.677-.536A1.991,1.991,0,0,1,41.26,6.2,2.909,2.909,0,0,1,41.3,5.044a3.272,3.272,0,0,1,.369-.97,3.443,3.443,0,0,1,.617-.783,3.192,3.192,0,0,1,.794-.551,3.1,3.1,0,0,1,.91-.283,1.09,1.09,0,0,0,.1-.192.38.38,0,0,0-.071-.3,1.513,1.513,0,0,0-.222-.258,2.53,2.53,0,0,1-.344-.43.815.815,0,0,1-.071-.622l.091-.414a.257.257,0,0,1,.076-.131A.183.183,0,0,1,43.681.06h.92a.109.109,0,0,1,.1.051.17.17,0,0,1,.01.131l-.081.4a.269.269,0,0,0,.051.2q.071.111.172.253a3.1,3.1,0,0,1,.278.48,1,1,0,0,1,.056.632q-.02.071-.051.157t-.071.187a1.911,1.911,0,0,1,.576.389,1.86,1.86,0,0,1,.4.576,2.448,2.448,0,0,1,.192.718,2.489,2.489,0,0,1-.045.814,4.044,4.044,0,0,1-.435,1.157,3.274,3.274,0,0,1-.7.859,2.963,2.963,0,0,1-.879.531A2.666,2.666,0,0,1,43.216,7.783Zm.233-1.061a1.282,1.282,0,0,0,.96-.425,2.518,2.518,0,0,0,.576-1.243,1.965,1.965,0,0,0,.04-.617,1.131,1.131,0,0,0-.157-.485.916.916,0,0,0-.334-.318,1.008,1.008,0,0,0-.5-.116,1.308,1.308,0,0,0-.991.43,2.239,2.239,0,0,0-.546,1.1,1.722,1.722,0,0,0,.091,1.248A.929.929,0,0,0,43.448,6.722ZM50.615.06a2.272,2.272,0,0,1,.94.182A1.393,1.393,0,0,1,52.2.833a2.434,2.434,0,0,1,.278,1.077A6.233,6.233,0,0,1,52.3,3.558q-.091.445-.222.955a10.44,10.44,0,0,1-.334,1.051,8.539,8.539,0,0,1-.505,1.1,7.241,7.241,0,0,1-.728,1.082.213.213,0,0,1-.1.071.13.13,0,0,1-.1,0L49.574,7.5a.129.129,0,0,1-.071-.106.183.183,0,0,1,.051-.147,7.358,7.358,0,0,0,.622-.935,7.176,7.176,0,0,0,.42-.9,8.275,8.275,0,0,0,.288-.9q.116-.455.217-.95a4.007,4.007,0,0,0,.1-1.84.768.768,0,0,0-.814-.586,1.291,1.291,0,0,0-1.056.586,4.751,4.751,0,0,0-.7,1.83q-.111.5-.187.955a7.715,7.715,0,0,0-.1.9,5.688,5.688,0,0,0,.03.895,4.81,4.81,0,0,0,.2.925.154.154,0,0,1-.015.147.251.251,0,0,1-.116.106l-.849.334a.172.172,0,0,1-.116,0,.122.122,0,0,1-.076-.071,5.108,5.108,0,0,1-.243-1.092,6.661,6.661,0,0,1-.03-1.1,9.371,9.371,0,0,1,.116-1.046q.086-.505.177-.95a7.581,7.581,0,0,1,.531-1.648A3.921,3.921,0,0,1,48.674.833a2.443,2.443,0,0,1,.9-.591A3,3,0,0,1,50.615.06Zm5.914,5.257a1.887,1.887,0,0,0,0-.824,2.913,2.913,0,0,0-.323-.8,1.546,1.546,0,0,1-.152-1.112,3.666,3.666,0,0,1,.1-.364,2.779,2.779,0,0,1,.152-.364.431.431,0,0,1,.1-.106.112.112,0,0,1,.111-.025l.869.192a.136.136,0,0,1,.086.081.167.167,0,0,1-.015.142q-.061.142-.111.263a1.134,1.134,0,0,0-.071.233,1,1,0,0,0-.02.283.6.6,0,0,0,.091.273A3.267,3.267,0,0,1,57.757,4.2a2.726,2.726,0,0,1-.025,1.127,3.048,3.048,0,0,1-.414,1.011,3.188,3.188,0,0,1-.692.773,3.146,3.146,0,0,1-.879.5,2.8,2.8,0,0,1-.975.177,2.4,2.4,0,0,1-.915-.167,1.577,1.577,0,0,1-.667-.5,1.857,1.857,0,0,1-.344-.839A3.149,3.149,0,0,1,52.9,5.1L53.931.252a.257.257,0,0,1,.076-.131A.183.183,0,0,1,54.133.07H55a.121.121,0,0,1,.106.051.155.155,0,0,1,.015.131L54.082,5.145a1.649,1.649,0,0,0,.076,1.168A.893.893,0,0,0,55,6.722a1.365,1.365,0,0,0,.991-.394A1.937,1.937,0,0,0,56.529,5.317Zm7.157-2.871a1.617,1.617,0,0,1,1.163.4l.1-.536a1.321,1.321,0,0,0,.02-.556.775.775,0,0,0-.182-.364.732.732,0,0,0-.334-.2,1.506,1.506,0,0,0-.435-.061,1.819,1.819,0,0,0-.885.192,1.057,1.057,0,0,0-.47.758.206.206,0,0,1-.066.131.183.183,0,0,1-.126.051h-.879a.121.121,0,0,1-.106-.051.183.183,0,0,1-.025-.131,2.442,2.442,0,0,1,.409-.945A2.416,2.416,0,0,1,62.543.51a2.8,2.8,0,0,1,.829-.344A3.779,3.779,0,0,1,64.252.06,2.43,2.43,0,0,1,65.1.207a1.732,1.732,0,0,1,.672.435,1.649,1.649,0,0,1,.389.713,2.091,2.091,0,0,1-.005.991l-.647,3.012a2.981,2.981,0,0,1-.42,1.061,3.018,3.018,0,0,1-.7.758,2.915,2.915,0,0,1-.864.455,2.985,2.985,0,0,1-.93.152,2.229,2.229,0,0,1-.915-.182A1.721,1.721,0,0,1,61,7.07a1.943,1.943,0,0,1-.359-.854,3.018,3.018,0,0,1,.04-1.142,3.294,3.294,0,0,1,.44-1.056,3.655,3.655,0,0,1,.723-.829,3.349,3.349,0,0,1,.9-.546A2.491,2.491,0,0,1,63.686,2.446Zm-.222,1.072a1.278,1.278,0,0,0-.531.116,1.609,1.609,0,0,0-.465.318,1.941,1.941,0,0,0-.359.49,2.657,2.657,0,0,0-.233.632,2.079,2.079,0,0,0-.035.652,1.316,1.316,0,0,0,.167.521.949.949,0,0,0,.839.475,1.306,1.306,0,0,0,.94-.369,2.037,2.037,0,0,0,.536-1.066l.273-1.3a1.432,1.432,0,0,0-.521-.354A1.684,1.684,0,0,0,63.463,3.517Zm7.925,1.476a4.1,4.1,0,0,1-.49,1.324,3.262,3.262,0,0,1-.743.864,2.573,2.573,0,0,1-.885.465,3.274,3.274,0,0,1-.915.136,2.429,2.429,0,0,1-.96-.177,1.471,1.471,0,0,1-.657-.536,1.977,1.977,0,0,1-.3-.9,4,4,0,0,1,.091-1.259,3.05,3.05,0,0,1,.136-.43q.1-.248.212-.49a4.433,4.433,0,0,1,.258-.465,3.234,3.234,0,0,1,.263-.364.155.155,0,0,1,.2-.061l.677.344a.152.152,0,0,1,.071.106A.2.2,0,0,1,68.3,3.7a3.119,3.119,0,0,0-.349.561,2.814,2.814,0,0,0-.227.642,2.172,2.172,0,0,0,.015,1.4.883.883,0,0,0,.854.42,1.754,1.754,0,0,0,.526-.076,1.108,1.108,0,0,0,.445-.273,1.82,1.82,0,0,0,.359-.526A3.9,3.9,0,0,0,70.186,5a2.5,2.5,0,0,0,.066-.728,1.929,1.929,0,0,0-.121-.556,1.808,1.808,0,0,0-.248-.44q-.152-.2-.3-.379-.182-.212-.354-.45a2.356,2.356,0,0,1-.288-.541A2.394,2.394,0,0,1,68.8,1.2a3.552,3.552,0,0,1,.1-.96.257.257,0,0,1,.076-.131A.183.183,0,0,1,69.094.06h.839a.121.121,0,0,1,.106.051.155.155,0,0,1,.015.131,2.345,2.345,0,0,0-.051.7,1.97,1.97,0,0,0,.131.551,2.252,2.252,0,0,0,.253.46l.3.425q.182.233.354.485a2.5,2.5,0,0,1,.283.561,2.653,2.653,0,0,1,.142.692A2.985,2.985,0,0,1,71.388,4.993Zm.981,1.324a.127.127,0,0,1-.02-.121.242.242,0,0,1,.081-.121,2.008,2.008,0,0,1,.5-.283,5.187,5.187,0,0,1,.551-.192,2.575,2.575,0,0,1-.4-.6,3.346,3.346,0,0,1-.263-.728,3.606,3.606,0,0,1-.1-.788,3.339,3.339,0,0,1,.076-.768,3.957,3.957,0,0,1,.4-1.107,3.579,3.579,0,0,1,.627-.834A2.641,2.641,0,0,1,74.6.247,2.114,2.114,0,0,1,75.462.06a2.086,2.086,0,0,1,.8.142,1.079,1.079,0,0,1,.546.536A1.872,1.872,0,0,1,77.615.2a2.983,2.983,0,0,1,.91-.142,1.593,1.593,0,0,1,.783.182,1.368,1.368,0,0,1,.526.521,1.924,1.924,0,0,1,.238.814,3.714,3.714,0,0,1-.081,1.061q-.081.354-.187.672a4.015,4.015,0,0,1-.278.637,5.505,5.505,0,0,1-.409.642,7.275,7.275,0,0,1-.571.677.115.115,0,0,1-.081.056.177.177,0,0,1-.111-.005l-.748-.344a.111.111,0,0,1-.081-.111.229.229,0,0,1,.061-.152q.293-.334.5-.612a4.373,4.373,0,0,0,.344-.531,3.219,3.219,0,0,0,.217-.49q.081-.238.142-.49a1.739,1.739,0,0,0-.035-1.061.607.607,0,0,0-.591-.394,1.432,1.432,0,0,0-.339.04,1.058,1.058,0,0,0-.318.136.955.955,0,0,0-.273.273,1.282,1.282,0,0,0-.182.45q-.03.142-.066.339t-.071.42q-.035.222-.066.45t-.051.409a.178.178,0,0,1-.061.136.2.2,0,0,1-.142.056h-.92a.115.115,0,0,1-.111-.056.185.185,0,0,1-.01-.136q.061-.182.126-.409t.126-.45q.061-.222.106-.42t.076-.339a.979.979,0,0,0,.02-.435.616.616,0,0,0-.136-.278.5.5,0,0,0-.253-.147,1.352,1.352,0,0,0-.339-.04.824.824,0,0,0-.4.106,1.4,1.4,0,0,0-.364.3,1.9,1.9,0,0,0-.3.46,2.808,2.808,0,0,0-.2.581,4.072,4.072,0,0,0-.086,1.233,1.818,1.818,0,0,0,.49,1.041,1.269,1.269,0,0,0,.465.344q.3.142.657.283t.7.308a2.427,2.427,0,0,1,.6.4,1.418,1.418,0,0,1,.374.561,1.469,1.469,0,0,1,.03.794l-.02.071a.194.194,0,0,1-.2.172H76.21q-.162,0-.121-.172A.686.686,0,0,0,76,7.06a1.26,1.26,0,0,0-.425-.394,2.123,2.123,0,0,0-.591-.233,2.592,2.592,0,0,0-.586-.076,1.814,1.814,0,0,0-.647.136,2.6,2.6,0,0,0-.718.44.184.184,0,0,1-.131.061.127.127,0,0,1-.111-.061ZM85.278,4.993a4.1,4.1,0,0,1-.49,1.324,3.262,3.262,0,0,1-.743.864,2.572,2.572,0,0,1-.885.465,3.274,3.274,0,0,1-.915.136,2.429,2.429,0,0,1-.96-.177,1.471,1.471,0,0,1-.657-.536,1.977,1.977,0,0,1-.3-.9,4,4,0,0,1,.091-1.259,3.052,3.052,0,0,1,.136-.43q.1-.248.212-.49a4.436,4.436,0,0,1,.258-.465,3.235,3.235,0,0,1,.263-.364.155.155,0,0,1,.2-.061l.677.344a.152.152,0,0,1,.071.106.2.2,0,0,1-.051.147,3.119,3.119,0,0,0-.349.561,2.815,2.815,0,0,0-.227.642,2.172,2.172,0,0,0,.015,1.4.883.883,0,0,0,.854.42A1.754,1.754,0,0,0,83,6.646a1.108,1.108,0,0,0,.445-.273,1.82,1.82,0,0,0,.359-.526A3.9,3.9,0,0,0,84.075,5a2.5,2.5,0,0,0,.066-.728,1.929,1.929,0,0,0-.121-.556,1.808,1.808,0,0,0-.248-.44q-.152-.2-.3-.379-.182-.212-.354-.45a2.356,2.356,0,0,1-.288-.541,2.394,2.394,0,0,1-.142-.708,3.552,3.552,0,0,1,.1-.96.257.257,0,0,1,.076-.131A.183.183,0,0,1,82.983.06h.839a.121.121,0,0,1,.106.051.155.155,0,0,1,.015.131,2.345,2.345,0,0,0-.051.7,1.97,1.97,0,0,0,.131.551,2.253,2.253,0,0,0,.253.46l.3.425q.182.233.354.485a2.5,2.5,0,0,1,.283.561,2.653,2.653,0,0,1,.142.692A2.985,2.985,0,0,1,85.278,4.993Zm3.043,2.79a2.17,2.17,0,0,1-.879-.177,1.7,1.7,0,0,1-.672-.521,1.946,1.946,0,0,1-.364-.844,2.863,2.863,0,0,1,.045-1.147,4.845,4.845,0,0,1,.187-.647,3.8,3.8,0,0,1,.233-.51,2.143,2.143,0,0,1,.293-.409,3.851,3.851,0,0,1,.359-.344,1.334,1.334,0,0,1-.556-.586,1.283,1.283,0,0,1-.081-.849,1.973,1.973,0,0,1,.318-.743,2.1,2.1,0,0,1,.546-.531,2.331,2.331,0,0,1,.7-.313,3.027,3.027,0,0,1,.783-.1,2.389,2.389,0,0,1,.728.106,1.53,1.53,0,0,1,.561.308,1.075,1.075,0,0,1,.318.505,1.46,1.46,0,0,1,.01.708,1.987,1.987,0,0,1-.2.566,1.545,1.545,0,0,1-.344.414,2.294,2.294,0,0,1,.526.339,1.579,1.579,0,0,1,.389.5,1.979,1.979,0,0,1,.187.687,2.863,2.863,0,0,1-.071.9,3.655,3.655,0,0,1-.45,1.157,3.425,3.425,0,0,1-.713.839,2.968,2.968,0,0,1-.884.516A2.775,2.775,0,0,1,88.321,7.783Zm.232-1.061A1.2,1.2,0,0,0,89.1,6.6a1.614,1.614,0,0,0,.46-.349,2.145,2.145,0,0,0,.354-.521,2.668,2.668,0,0,0,.217-.642,1.74,1.74,0,0,0-.056-1.127.8.8,0,0,0-.794-.43,1.4,1.4,0,0,0-.561.116,1.605,1.605,0,0,0-.485.329,1.955,1.955,0,0,0-.369.505,2.457,2.457,0,0,0-.222.637,2.024,2.024,0,0,0-.056.637,1.311,1.311,0,0,0,.142.51.847.847,0,0,0,.323.339A.974.974,0,0,0,88.553,6.722Zm.162-4.236a.991.991,0,0,0,.672-.207.827.827,0,0,0,.288-.46.521.521,0,0,0-.111-.516.852.852,0,0,0-.6-.172.964.964,0,0,0-.612.172.846.846,0,0,0-.288.516.531.531,0,0,0,.086.5A.74.74,0,0,0,88.715,2.486ZM95.761.06a2.272,2.272,0,0,1,.94.182,1.393,1.393,0,0,1,.642.591,2.434,2.434,0,0,1,.278,1.077,6.234,6.234,0,0,1-.172,1.648q-.091.445-.222.955a10.438,10.438,0,0,1-.334,1.051,8.539,8.539,0,0,1-.505,1.1,7.241,7.241,0,0,1-.728,1.082.214.214,0,0,1-.1.071.13.13,0,0,1-.1,0L94.719,7.5a.129.129,0,0,1-.071-.106.183.183,0,0,1,.051-.147,7.357,7.357,0,0,0,.622-.935,7.177,7.177,0,0,0,.42-.9,8.276,8.276,0,0,0,.288-.9q.116-.455.217-.95a4.007,4.007,0,0,0,.1-1.84.768.768,0,0,0-.814-.586,1.291,1.291,0,0,0-1.056.586,4.751,4.751,0,0,0-.7,1.83q-.111.5-.187.955a7.715,7.715,0,0,0-.1.9,5.686,5.686,0,0,0,.03.895,4.809,4.809,0,0,0,.2.925.154.154,0,0,1-.015.147.251.251,0,0,1-.116.106l-.849.334a.172.172,0,0,1-.116,0,.122.122,0,0,1-.076-.071A5.108,5.108,0,0,1,92.3,6.651a6.662,6.662,0,0,1-.03-1.1,9.375,9.375,0,0,1,.116-1.046q.086-.505.177-.95A7.583,7.583,0,0,1,93.1,1.91,3.921,3.921,0,0,1,93.82.833a2.443,2.443,0,0,1,.9-.591A3,3,0,0,1,95.761.06Zm7.187,4.933a4.1,4.1,0,0,1-.49,1.324,3.262,3.262,0,0,1-.743.864,2.573,2.573,0,0,1-.885.465,3.274,3.274,0,0,1-.915.136,2.429,2.429,0,0,1-.96-.177A1.471,1.471,0,0,1,98.3,7.07a1.977,1.977,0,0,1-.3-.9,4,4,0,0,1,.091-1.259,3.052,3.052,0,0,1,.136-.43q.1-.248.212-.49a4.433,4.433,0,0,1,.258-.465,3.234,3.234,0,0,1,.263-.364.155.155,0,0,1,.2-.061l.677.344a.152.152,0,0,1,.071.106.2.2,0,0,1-.051.147,3.118,3.118,0,0,0-.349.561,2.814,2.814,0,0,0-.227.642,2.172,2.172,0,0,0,.015,1.4.883.883,0,0,0,.854.42,1.754,1.754,0,0,0,.526-.076,1.108,1.108,0,0,0,.445-.273,1.82,1.82,0,0,0,.359-.526A3.9,3.9,0,0,0,101.745,5a2.5,2.5,0,0,0,.066-.728,1.928,1.928,0,0,0-.121-.556,1.808,1.808,0,0,0-.248-.44q-.152-.2-.3-.379-.182-.212-.354-.45a2.357,2.357,0,0,1-.288-.541,2.394,2.394,0,0,1-.142-.708,3.552,3.552,0,0,1,.1-.96.257.257,0,0,1,.076-.131.183.183,0,0,1,.126-.051h.839a.121.121,0,0,1,.106.051.155.155,0,0,1,.015.131,2.345,2.345,0,0,0-.051.7,1.971,1.971,0,0,0,.131.551,2.253,2.253,0,0,0,.253.46l.3.425q.182.233.354.485a2.5,2.5,0,0,1,.283.561,2.652,2.652,0,0,1,.142.692A2.985,2.985,0,0,1,102.948,4.993Z" transform="translate(42.799 58.958)" fill="#ffd001"/><g transform="translate(0 0)"><g transform="translate(0 0)"><g transform="translate(0 0)"><path d="M233.061,106.471l.588-2.2h5.062l-1.191,4.518a14.1,14.1,0,0,1-2.929,1.361,9.735,9.735,0,0,1-2.749.357,5.474,5.474,0,0,1-2.905-.643,3.034,3.034,0,0,1-1.334-1.915,5.9,5.9,0,0,1,.126-2.922A7.824,7.824,0,0,1,229.251,102a6.8,6.8,0,0,1,2.616-1.949,7.861,7.861,0,0,1,3.034-.51,7.382,7.382,0,0,1,2.545.316,2.354,2.354,0,0,1,1.184.987,3.375,3.375,0,0,1,.412,1.7l-3.324.548a1.231,1.231,0,0,0-.415-.915,1.68,1.68,0,0,0-1.106-.32,2.8,2.8,0,0,0-1.919.748,4.733,4.733,0,0,0-1.269,2.381,3.286,3.286,0,0,0,0,2.46,1.738,1.738,0,0,0,1.609.738,3.875,3.875,0,0,0,1.092-.16,7.339,7.339,0,0,0,1.286-.544l.265-1Z" transform="translate(-150.094 -65.477)" fill="#ffd001"/><g transform="translate(49.718 34.052)"><path d="M148.974,100.06h3.276l-2.13,7.988h5.1l-.68,2.613H146.15Z" transform="translate(-146.15 -99.877)" fill="#fff"/><path d="M182.255,106.471l.589-2.2h5.062l-1.2,4.518a14.032,14.032,0,0,1-2.932,1.361,9.7,9.7,0,0,1-2.745.357,5.475,5.475,0,0,1-2.905-.643,3.035,3.035,0,0,1-1.333-1.915,5.9,5.9,0,0,1,.126-2.922A7.823,7.823,0,0,1,178.431,102a6.8,6.8,0,0,1,2.616-1.949,7.861,7.861,0,0,1,3.034-.51,7.382,7.382,0,0,1,2.545.316,2.354,2.354,0,0,1,1.184.987,3.375,3.375,0,0,1,.412,1.7l-3.31.548a1.221,1.221,0,0,0-.418-.915,1.664,1.664,0,0,0-1.1-.32,2.8,2.8,0,0,0-1.919.748,4.732,4.732,0,0,0-1.269,2.381,3.286,3.286,0,0,0,0,2.46,1.738,1.738,0,0,0,1.609.738,3.875,3.875,0,0,0,1.092-.16,7.334,7.334,0,0,0,1.286-.544l.265-1Z" transform="translate(-166.28 -99.529)" fill="#fff"/><path d="M261.61,110.647l2.824-10.6h5.443a7.222,7.222,0,0,1,2.252.259,1.7,1.7,0,0,1,1.038.966,2.609,2.609,0,0,1,.034,1.7,3.808,3.808,0,0,1-.782,1.521,4.334,4.334,0,0,1-1.31,1.021,5.151,5.151,0,0,1-1.262.422,2.434,2.434,0,0,1,.748.388,2.4,2.4,0,0,1,.374.558,2.916,2.916,0,0,1,.282.66l.769,3.062h-3.684l-.888-3.239a1.745,1.745,0,0,0-.374-.82,1.106,1.106,0,0,0-.738-.245h-.289l-1.146,4.3Zm4.97-6.307h1.381a5.638,5.638,0,0,0,.9-.143,1.217,1.217,0,0,0,.622-.34,1.314,1.314,0,0,0,.367-.616.789.789,0,0,0-.116-.786,1.627,1.627,0,0,0-1.146-.276h-1.439Z" transform="translate(-222.332 -99.864)" fill="#ffd001"/><path d="M297,105.012a7.365,7.365,0,0,1,2.521-4.041,6.9,6.9,0,0,1,4.422-1.446q2.643,0,3.7,1.419a4.521,4.521,0,0,1,.371,3.98,8.242,8.242,0,0,1-1.436,3.062,6.589,6.589,0,0,1-2.3,1.854,7.072,7.072,0,0,1-3.123.66,5.783,5.783,0,0,1-2.813-.571,3.062,3.062,0,0,1-1.425-1.806A5.488,5.488,0,0,1,297,105.012Zm3.273,0a3.2,3.2,0,0,0-.02,2.306,1.518,1.518,0,0,0,1.436.7,2.64,2.64,0,0,0,1.82-.68,5.063,5.063,0,0,0,1.235-2.466,2.915,2.915,0,0,0-.02-2.187,1.561,1.561,0,0,0-1.456-.68,2.585,2.585,0,0,0-1.776.7,4.644,4.644,0,0,0-1.218,2.32Z" transform="translate(-245.502 -99.522)" fill="#ffd001"/><path d="M342.463,100.034h3.269l-1.684,6.314a6.616,6.616,0,0,1-.765,1.776,5.659,5.659,0,0,1-1.306,1.459,5.3,5.3,0,0,1-1.548.878,7.464,7.464,0,0,1-2.381.34,13.849,13.849,0,0,1-1.66-.109,3.531,3.531,0,0,1-1.415-.429,2.589,2.589,0,0,1-.881-.915,2.531,2.531,0,0,1-.374-1.221,6.354,6.354,0,0,1,.173-1.793l1.684-6.314h3.269l-1.725,6.463a1.572,1.572,0,0,0,.122,1.361,1.385,1.385,0,0,0,1.2.486,2.276,2.276,0,0,0,1.453-.48,2.473,2.473,0,0,0,.844-1.361Z" transform="translate(-269.906 -99.851)" fill="#ffd001"/><path d="M369.9,100.06h5.443a2.956,2.956,0,0,1,2.439.844,2.651,2.651,0,0,1,.242,2.408,4.446,4.446,0,0,1-1.633,2.511,5.16,5.16,0,0,1-3.188.9h-1.793l-1.048,3.936h-3.29Zm2.085,4.518h.8a2.47,2.47,0,0,0,1.419-.34,1.477,1.477,0,0,0,.609-.84.983.983,0,0,0-.109-.847c-.16-.231-.544-.34-1.16-.34h-.932Z" transform="translate(-291.917 -99.877)" fill="#ffd001"/><path d="M415.9,100.06h3.273l-2.13,7.988h5.1l-.68,2.613H413.08Z" transform="translate(-322.275 -99.877)" fill="#ffd001"/><path d="M444.68,100.06h9.957l-.68,2.616h-3.341l-2.126,7.984h-3.276l2.126-7.984H444Z" transform="translate(-342.676 -99.877)" fill="#ffd001"/><path d="M474.287,100.048h4.865a5.1,5.1,0,0,1,2.221.388,2.581,2.581,0,0,1,1.163,1.123,3.571,3.571,0,0,1,.388,1.7,8.063,8.063,0,0,1-.286,2.041,8.882,8.882,0,0,1-1.089,2.636,6.445,6.445,0,0,1-1.493,1.568,4.841,4.841,0,0,1-1.7.844,8.427,8.427,0,0,1-2.041.289H471.46Zm2.633,2.381-1.541,5.783h.8a3.806,3.806,0,0,0,1.521-.228,2.266,2.266,0,0,0,.891-.8,6.1,6.1,0,0,0,.738-1.84,3.267,3.267,0,0,0,.065-2.306c-.255-.415-.81-.623-1.657-.623Z" transform="translate(-360.795 -99.865)" fill="#ffd001"/></g><path d="M156.28,18.071c-.867-4.7-2.881-6.756-2.881-6.756s-13.009,4.007-25.306.34c-15.278-4.538-25.231-8.3-41.366-8.164a128.8,128.8,0,0,0-36.6,5.858C72.945.729,85.985-2.765,107.62,2.416c8.467,2.041,16.135,5.47,24.7,7,7.113,1.276,15.614,1.7,22.952-1.051a31.409,31.409,0,0,1,2.98,11.7,22.722,22.722,0,0,1-1.847,9.961c-.058.143.68-7.5-.126-11.954m-45.741-6.936s-16.216,9.8-59.342.714A71.087,71.087,0,0,0,6.548,18.238C.085,21.456-.466,21.443.231,29.124,1.395,22.106,1.5,22.47,7.923,19.7a65.676,65.676,0,0,1,15.009-4.293c7.851-1.4,17.4-.833,38.441,1.783C99.861,21.984,110.539,11.135,110.539,11.135Z" transform="translate(0 0.009)" fill="#ffd001" fill-rule="evenodd"/></g></g></g></g></g></svg>