<svg xmlns="http://www.w3.org/2000/svg" width="44" height="44" viewBox="0 0 44 44"><g transform="translate(0)"><path d="M7.9,20.4a2.3,2.3,0,1,0,2.3,2.3A2.3,2.3,0,0,0,7.9,20.4ZM1,2V4.3H3.3l4.14,8.729L5.887,15.846a2.223,2.223,0,0,0-.287,1.1,2.307,2.307,0,0,0,2.3,2.3H21.7v-2.3H8.383a.285.285,0,0,1-.288-.287l.035-.138L9.165,14.65h8.567a2.289,2.289,0,0,0,2.013-1.185L23.862,6A1.124,1.124,0,0,0,24,5.45,1.153,1.153,0,0,0,22.85,4.3H5.841L4.76,2H1ZM19.4,20.4a2.3,2.3,0,1,0,2.3,2.3A2.3,2.3,0,0,0,19.4,20.4Z" transform="translate(10 9)" fill="#fff"/><path d="M0,0H44V44H0Z" transform="translate(0 0)" fill="none"/></g></svg>