<svg xmlns="http://www.w3.org/2000/svg" width="20" height="20" viewBox="0 0 20 20"><path d="M224.113,211.786l3.253-1.873-3.253-1.873Zm0,0" transform="translate(-215.359 -199.913)" fill="#fff"/><path d="M10,0A10,10,0,1,0,20,10,10,10,0,0,0,10,0Zm6.248,10.01a16.5,16.5,0,0,1-.257,3.006,1.566,1.566,0,0,1-1.1,1.1,38.008,38.008,0,0,1-4.89.257,36.648,36.648,0,0,1-4.89-.268,1.566,1.566,0,0,1-1.1-1.1A16.432,16.432,0,0,1,3.751,10a16.494,16.494,0,0,1,.257-3.006,1.6,1.6,0,0,1,1.1-1.112A38.008,38.008,0,0,1,10,5.625a36.57,36.57,0,0,1,4.89.268,1.566,1.566,0,0,1,1.1,1.1,15.662,15.662,0,0,1,.257,3.016Zm0,0" fill="#fff"/></svg>