<svg xmlns="http://www.w3.org/2000/svg" width="24" height="24" viewBox="0 0 24 24"><path d="M894.1,1116.7a6.565,6.565,0,0,1,4.9-2,6.83,6.83,0,0,1,6.9,6.9,8.522,8.522,0,0,1-.7,3.3,23.129,23.129,0,0,1-1.8,3.5c-.7,1.1-1.4,2.1-2,3.1a17.192,17.192,0,0,1-1.7,2.3l-.8.8c-.2-.2-.4-.5-.8-.9a22.067,22.067,0,0,1-1.7-2.2c-.8-1.1-1.5-2.1-2.1-3.1a26.939,26.939,0,0,1-1.7-3.4,9.267,9.267,0,0,1-.8-3.4A8.042,8.042,0,0,1,894.1,1116.7Zm3.2,6.7a2.664,2.664,0,1,0-.7-1.8A2.41,2.41,0,0,0,897.3,1123.4Z" transform="translate(-886.85 -1112.492)" fill="#444"/><rect width="24" height="24" fill="none"/></svg>